<?xml version="1.0" encoding="UTF-8"?>
<svg id="Calque_1" xmlns="http://www.w3.org/2000/svg" version="1.1" viewBox="0 0 528.4 996.3">
  <!-- Generator: Adobe Illustrator 29.8.2, SVG Export Plug-In . SVG Version: 2.1.1 Build 3)  -->
  <defs>
    <style>
      .st0 {
        fill: #e55555;
      }

      .st1 {
        fill: #fccca2;
      }

      .st2 {
        fill: #e9744f;
      }

      .st3 {
        fill: #eda886;
      }

      .st4 {
        fill: #366083;
      }

      .st5 {
        fill: #4174a0;
      }

      .st6 {
        fill: #dbdff1;
      }

      .st7 {
        fill: #3d4065;
      }
    </style>
  </defs>
  <path class="st7" d="M320.2,406.8c4.4,10.6,12.4,23.4,17.4,34.9,16.7,38.3,26.9,70.7,37.3,111-28,4.2-54.3,14.7-79.7,26.9-14.8-28.7-32.7-56.6-45.2-86.8-2.2-3.4-6.3-4.6-9.8-2.4s-10.9,22.4-13.2,27.1c-9.3,19.1-19.5,38.1-28.7,57.3-26.8-11.2-54.7-20.7-83.5-25,12.6-40.7,21-80.5,39.2-119.7,3.7-8.1,9-15.2,12.6-22.4,51.1,4.9,102.7,5.7,153.6-1Z"/>
  <path class="st5" d="M208.9,158.1c-10.1,26.2-17,64.2,19.1,71.6,18.6,3.8,41.2.3,48.9-19.4s.8-34.6-1.8-52.2c6.7,2.5,13.9,3.9,20.2,7.7,9.9,20.8,28.9,43.7,31.7,67.2s-1.2,30.7-13.3,40c-.7,18.3-8.4,37.7-9.8,55.5-1.3,16.6,8.3,50.8,13.4,67.7l-146.8,1.9c3.8-11.8,9.4-36.4,10.4-48.6,1.5-17.1-8.2-58-13.8-75.3-1.4-4.4-3.7-6.2-5.3-9.6-6.8-14.3-11.3-27.4-4-42.9,7.5-15.8,18.2-31.7,25.6-48.3.7-1.6,1.6-3,1.4-4.8,8.3-3.4,14.5-7.2,24-10.6Z"/>
  <path class="st3" d="M198.3,574.8c-8.4,17.6-15,36.2-23.6,53.6-10.4,21-24.2,40.4-35.1,60.9s-7.5,13.5-8.2,17.7c-2.7,16.3,3.8,37.6,4.6,54.4,2.3,46.5-3.4,96.8-3.9,143.6-9.2,4.6-25.9-7-33.5-2.3-2.4,1.5-2.2,4.4-4.9,4.2-8.3-51.2-13.8-102.6-19.2-154.1-2.2-20.3-7.4-39.7-5.7-60.5,1.3-15.9,10.3-33.1,15.3-48.5,8-24.7,15-50.2,23-74.9s5.8-13.1,7.7-19.2c28.8,4.3,56.7,13.8,83.5,25Z"/>
  <path class="st3" d="M374.9,552.7c7.7,30,13.7,60.1,20.6,90.2,8.3,36.4,29.9,65.3,39.8,101.3,7.3,26.8,10,58.3,14.8,86s6,47.3,10.3,57.4c-11.9-2.1-21.9,6.5-33.6,2.9-13.8-42.8-32.8-83.3-51-124.2-9.7-21.8-13.4-40.3-20-62.5s-15.5-29.1-21.9-42.4c-13.1-27.2-24.8-55.2-38.5-81.9,25.3-12.2,51.7-22.7,79.7-26.9Z"/>
  <path class="st3" d="M184.9,168.7c.2,1.9-.7,3.2-1.4,4.8-7.4,16.6-18.2,32.5-25.6,48.3-7.3,15.5-2.8,28.6,4,42.9-7.4,19.5-19.2,40-25.2,59.7s-5.1,32.7-10.5,49c-12.9,38.7-36.2,74.1-46.7,113.4,1.2,4,3.1,26.5,1.8,28.4s-1.7-.4-1.9.6c-.6,2.3.5,6.4,0,9s-4.6,10.2-5.2,10.6c-2.2,1.6-9.3.8-12.5,2.8-3.3-3-11-2.2-13.4-3.8s-1.1-3.4-1.7-3.8c-1-.7-4.3.7-6.2-1s-1.2-3.8-1.3-3.9c-.6-.5-5.6,3.3-7.7,1.9l1-5.8c6.6-3.8,8.2-1.5,10.5-11.1-2-.7-6.7,0-8.6.5.2-15.6,14.8-26.6,20.6-40.3,7.9-18.5,16.5-48.1,20.3-68s5.3-45.5,12.3-65.4,18.2-43,24.7-65.5c9.3-32.3,7.4-76.8,42.9-92.4,9.6-4.2,20.1-7,29.7-11.1Z"/>
  <path class="st3" d="M460.3,82.3c-3.3,0-2.9,7.3-9.6,4.8,1.2,2.8,5.1,2.2,7.6,3.4s.9,1.3,1,1.4c-.5,8.7-3.5,17.5-4.8,25.9s-.5,17.3-.9,26.4c-1.2,24.3-3.1,52.6-8.7,76.3-1.1,4.6-5.1,18.2-10.1,19.2-12.3-.5-25.2.8-37.4,0-23.5-1.5-46.3-12-70.5-6.7-2.8-23.5-21.7-46.4-31.7-67.2,1.3,0,2.6,0,3.8,0,20.8,0,30.5,8.4,48.7,13.2s23.4,4.8,33.8,6.6,3.9,1.3,4.8-.5c0,.2,2.5,2.7,2.7,2.8,5.1,2.3,13.7,2.5,19,5.8,1.3,0,1.9,0,2.8-1,2.7-3.3,9.8-30.7,10.8-36.3,2.3-13,2.3-26.5,4.1-39.6-.3-7.2-12.8-14.7-11.5-23,0,0-.2-1.4.7-1.9,2.3-1.4,10-3.7,9.9-7.2s-1.7-.6-2.4-1.5-.1-2.8-1-2.9-5.9,1.5-7.2,2c.6-10.4,2.7-29.2,17.1-25.3s11.4,3.9,17.5,4.6c2.7,2.9,7.7,1.9,10.1,4.3s.7,12.1,1.4,16.4Z"/>
  <path class="st3" d="M205,73.7c4.5-7.8,17.7-34.7,28.3-33.6s15.2,16.9,18.3,20.2c4.4,4.7,9.6,10,14.4,14.4,3.5,3.3,13.8,10.1,15.9,12.9s-2.3,12.3-3.7,15.6c-2.2,5.2-14.2,23.1-14.5,24.8-.6,3.2-.3,23.5.9,25.7,3.2,1.9,7.1,3.2,10.6,4.5,2.6,17.6,8.6,34.6,1.8,52.2s-30.2,23.2-48.9,19.4c-36.1-7.3-29.3-45.4-19.1-71.6,9-3.2,10.7-1.4,11.6-12,1.4-17.3-1-18.6-6.5-32.9-5.1-13.3-7.5-25.4-8.9-39.6ZM225.7,132.2c5.6,13.9,25.9,15.8,32.1,1.4-11.7,5.8-21.6,8.2-32.1-1.4Z"/>
  <path class="st0" d="M34.2,511.4c1.9-.6,6.6-1.2,8.6-.5-2.3,9.5-3.9,7.2-10.5,11.1-17.2,9.9-23,27.8-23,47,8.1-9.1,16.7-17.1,28.8-20.6,23.7-7,45.6,1.8,60.5,20.6.3-15.8-4.7-35.8-19.2-44.2.5-2.6-.6-6.6,0-9s1.9-.5,1.9-.6c18.3,11.6,25.9,32.8,25.9,53.8-8,24.7-15,50.2-23,74.9-33.3,21.9-80.5.5-83.5-39.8s-.8-29.7,0-40.4c1.5-20.2,12.7-45.8,33.6-52.3Z"/>
  <path class="st1" d="M299.1,165.8c-1.3,0-2.6,0-3.8,0-6.3-3.7-13.4-5.2-20.2-7.7s-7.4-2.7-10.6-4.5c-1.2-2.2-1.5-22.5-.9-25.7s12.3-19.6,14.5-24.8,5.8-12.9,3.7-15.6-12.4-9.6-15.9-12.9c-4.7-4.4-10-9.7-14.4-14.4-3-3.3-15.6-19.9-18.3-20.2-10.6-1.1-23.8,25.8-28.3,33.6-2.3-24.7-.8-47.2,21.4-62.6,26.8-18.7,58.5-13.2,77.9,12.8s18.1,50.6,6.5,79.3c-4.1,10.3-15.4,27.7-16.1,37.7s3.9,17,4.4,25Z"/>
  <path class="st6" d="M132.1,905c-.1,14.7,4.7,49.1-3.8,60-5.6,7.1-18.2,6.7-26.2,11.2-11.2,6.4-11.7,13.4-27.5,17.6-14.2,3.7-52.1,6.6-42-18,6.6-16.2,32.1-27.5,45.2-37.3,8.9-6.7,13.7-21,16-31.5,2.7.1,2.5-2.8,4.9-4.2,7.6-4.7,24.3,6.9,33.5,2.3Z"/>
  <path class="st6" d="M460.3,887.7c.8,1.9,3.2,3.9,4.3,6.7,4.4,10.2,7.6,23.3,16.8,30.2,13.5,10,28.3,15.2,39.8,29.3,27.6,33.9-33.1,32.8-52.2,18.7s-7.6-8.3-12.8-11.2c-10.4-5.7-23.8-2.7-28.6-16.6s0-38.1-.9-54.3c11.7,3.6,21.6-4.9,33.6-2.9Z"/>
  <path class="st0" d="M460.3,82.3c4.1.1,14.1,9.2,16.8,12.5,14.2,16.9,14,38.2,13.9,59.1,0,13.3.9,24-4.7,36.6-6.9,15.4-24.1,29.9-41.4,30.1,5.6-23.6,7.4-52,8.7-76.3.5-9.2-.6-17.1.9-26.4,11.6,3.6,20,11.3,27.8,20.2.3-14.7-4.8-33.8-17-43s-4-2-6.1-3-.4-1.1-1-1.4c-2.5-1.2-6.3-.7-7.6-3.4,6.7,2.5,6.3-4.9,9.6-4.8Z"/>
  <path class="st0" d="M414.3,82.3c1.3-.5,6.2-2.1,7.2-2s.4,2,1,2.9,2.4.8,2.4,1.5c0,3.5-7.6,5.8-9.9,7.2s-.6,1.9-.7,1.9c-.4.2-2.2-.3-3.1.2-12.1,6.6-19.1,30.8-18,43.9,8.4-9.9,19.2-19.4,32.6-21.1-1.9,13.1-1.8,26.5-4.1,39.6-1,5.6-8.1,33-10.8,36.3s-1.5,1.1-2.8,1c-5.3-3.4-13.9-3.5-19-5.8s-2.6-2.7-2.7-2.8c-.6-1.6-1.8-9-2-11-2.3-29.2-2.6-78.5,29.8-91.7Z"/>
  <path class="st4" d="M317.3,396.2c.8,2.7,2,8.5,2.9,10.6-50.9,6.7-102.5,5.9-153.6,1,1.1-2.2,3.1-7.2,3.8-9.6l146.8-1.9Z"/>
  <path class="st2" d="M225.7,132.2c10.6,9.6,20.4,7.2,32.1,1.4-6.2,14.4-26.6,12.5-32.1-1.4Z"/>
</svg>