<?xml version="1.0" encoding="UTF-8"?>
<svg id="Calque_1" xmlns="http://www.w3.org/2000/svg" version="1.1" viewBox="0 0 487.8 394.9">
  <!-- Generator: Adobe Illustrator 29.8.2, SVG Export Plug-In . SVG Version: 2.1.1 Build 3)  -->
  <defs>
    <style>
      .st0 {
        fill: #e55555;
      }

      .st1 {
        fill: #e9744f;
      }

      .st2 {
        fill: #eda886;
      }

      .st3 {
        fill: #537bad;
      }

      .st4 {
        fill: #324766;
      }

      .st5 {
        fill: #504e51;
      }

      .st6 {
        fill: #dbdff1;
      }
    </style>
  </defs>
  <path class="st3" d="M441.7,264c8.1,2.2,17.5.4,25.9,1v-115.2c0-.4-7.7.4-7.7,0v-21.1h6.7c-1.4,15.8,1.4,12.4,14.4,11.5v-11.5s6.7,0,6.7,0v21.1c0,.4-7.7-.4-7.7,0v244.8h-11.5v-112.3c-6.4,0-12.8,0-19.2,0-104.6-.5-209.2.4-313.8,0h-4.8s0-17.3,0-17.3c1.4-.2,3-.7,4.8-1h52.8c10.2.9,18.6,1.5,28.8,0,1,1.6,3.6,1,5.3,1,29.9.3,59.9,0,89.7,0s21.1,0,31.7,0c28.3,0,57.3.9,85.4,0,4.7-.1,7.8.4,12.5-1Z"/>
  <path class="st4" d="M235.4,204.5l9.6,49c-8.5,5.6-17.8,9.1-27.8,10.6-10.2,1.5-18.6.9-28.8,0-21.5-1.8-30.6-3.5-52.8,0-1.8.3-3.4.7-4.8,1s-2.5.7-3.8,1l-.6-.8-1.3.8c-2.3.4-12.9,1.5-13.4,1.9l-1.9,1c-3.1,0-7.9,3.3-11.9,2-1-.3-1.4-4.7-1.5-5.8l.8-.6-.8-1.3c-.3-1.3-.8-2.3-1-2.9-3.1-14.6-7.1-28.9-11.5-43.2,36.5-7.8,63.5-17.8,102.3-16.4,6.5.2,47.3,5.2,49.4,3.9Z"/>
  <path class="st1" d="M365.9,187.2c1.5.2,3.1-.4,3.7,1.6l6.8,35.3c1.3,1.9,5.6-2.1,7.8,4.4s3.7,17.4,4.8,25c-7.9.9-16.7,5.6-24.5,7.6s-13.8,2.2-20.6,3.9c-10.5,0-21.1,0-31.7,0l-36-9.6h-24c-1,0-3.2,1.7-5.6,1l-1.6-2.9-9.6-49c0,0-.4-1.7.6-1.9,5.1-1.4,20.3-.4,26.7-1,13.4-1.3,26.8-5.6,40.3-4.8,10.5.7,15.1,1.8,26.4.9-1,3,2.8,30.7,4.3,30.7.6-10.2.5-20.5,1.4-30.7.4-4,1.7-8.4,1.9-10.6,9.2.7,19.8-1,28.8,0Z"/>
  <path class="st2" d="M83.7,217c4.4,14.3,8.4,28.6,11.5,43.2-3-.3-7.9.6-9.7,3.3s-.5,23.9-.9,29.8c-1.7,24.6-14.5,44.6-12.5,71.5-6.4,1.9-16.6-3.9-22.1-1.9,1.9-17.3.7-34.9.9-52.4,0-2.3,1-4.4,1-6.6.2-17.9-3.3-62.8,4.9-76.7,6.1-10.4,17-8.1,26.7-10.2Z"/>
  <path class="st5" d="M361.1,84.5c-7.4,1.7-11.4,2.6-19.2,1-41-8.4-46.1-67.6-6-82.3,56.7-20.8,83.4,67.8,25.2,81.4ZM346.4,21.4c-27,4.6-21.8,49,9.1,43.7,27.2-4.7,21.5-48.9-9.1-43.7Z"/>
  <path class="st6" d="M449.4,282.3v112.3s-9.6,0-9.6,0v-105.6H145.1v105.6h-9.6s0-112.3,0-112.3c104.6.4,209.2-.5,313.8,0Z"/>
  <path class="st2" d="M361.1,84.5c.1,2.7-.2,5.4,0,8.2.9,11.6,4,24.2,4.8,35.5.9,13.3.3,29.7,0,43.3s-1.7,10.1,0,15.8c-9-1-19.6.7-28.8,0,2.1-23.7-.2-45,.9-67.7.6-11.4,3.8-22.6,3.9-34,7.8,1.6,11.8.8,19.2-1Z"/>
  <path class="st2" d="M437.9,211.2c.5,4.6-4,20.6-6.7,23.6-3.4,3.8-11.5-1.2-12.5,1.9-2,6.7,10.8,3,10.5,9.4-.5,8.5-9.5,2.5-12,2.5s-7.4,4.3-12.9,4.8-10.5-.5-15.4,0c-1.1-7.6-2.4-17.8-4.8-25h4.8c.7,3.2,3,6.8,5.7,8.6.5-3.2-2.2-6.1-2.9-8.6-4.2-16.8,5-11.4,14.4-16.8,2.4-1.4,2.7-5.6,4.5-6.1s9.5,4.2,12.6,4.5,4.8-1,7.4-.9,4.4,2.1,7.2,2Z"/>
  <path class="st6" d="M72.2,364.8c.7,8.8,5.6,19.9-1.9,27.4-6.8,0-14,1.2-20.6,1.5-10.5.5-28.7,1.9-38.4.9s-16.2-8.5-4.5-14.1c13.3-6.5,25.4-4.9,40.5-14.2s2.7-3.2,2.9-3.3c5.4-2,15.7,3.8,22.1,1.9Z"/>
  <path class="st5" d="M441.7,264c-4.7,1.4-7.8.8-12.5,1-6.2-2.4-12.8-3.7-18.9-6.6s-6-2-6.1-5c5.5-.5,11.4-4.7,12.9-4.8,2.5,0,11.6,6,12-2.5.3-6.4-12.5-2.7-10.5-9.4s9.1,1.9,12.5-1.9c2.6-3,7.2-18.9,6.7-23.6,5.8-.1,9.3-2.6,15.7,1.1,17.1,10,3.9,27.9-2.4,39.5-3.1,5.6-1.5,9.9-9.4,12.2Z"/>
  <path class="st0" d="M335.2,197.8c-.9,10.2-.8,20.5-1.4,30.7-1.6,0-5.3-27.8-4.3-30.7,1.9-.1,3.9.1,5.8,0Z"/>
  <path class="st1" d="M391.8,228.5c.6,2.5,3.3,5.5,2.9,8.6-2.8-1.8-5.1-5.4-5.7-8.6h2.9Z"/>
  <path class="st3" d="M96.2,265c-.3-1.9,0-1.8,0-1.9l.8,1.3-.8.6Z"/>
  <path class="st3" d="M126.9,266c-2.2.4-1.8,0-1.9,0l1.3-.8.6.8Z"/>
  <path class="st3" d="M111.6,267.9c-.1.1,0,1.4,0,1.9-.9.3-1.8-1-1.9-1l1.9-1Z"/>
  <path class="st1" d="M346.4,21.4c30.7-5.2,36.3,39,9.1,43.7-31,5.3-36.1-39.1-9.1-43.7Z"/>
</svg>