<?xml version="1.0" encoding="UTF-8"?>
<svg id="Calque_1" xmlns="http://www.w3.org/2000/svg" version="1.1" viewBox="0 0 460.2 811.8">
  <!-- Generator: Adobe Illustrator 29.8.2, SVG Export Plug-In . SVG Version: 2.1.1 Build 3)  -->
  <defs>
    <style>
      .st0 {
        fill: #383564;
      }

      .st1 {
        fill: #393664;
      }

      .st2 {
        fill: #ffab89;
      }

      .st3 {
        fill: #f95b56;
      }

      .st4 {
        fill: #58557d;
      }

      .st5 {
        fill: #e4cbb7;
      }

      .st6 {
        fill: #feba99;
      }

      .st7 {
        fill: #ededec;
      }

      .st8 {
        fill: #5abaf7;
      }

      .st9 {
        fill: #d35b56;
      }

      .st10 {
        fill: #3b3866;
      }
    </style>
  </defs>
  <path class="st0" d="M74.7,589.4c29.6.4,58.7,2.9,88,6,2,.2,4-.1,6,0,.8,24.4,3,43,0,68-.6,5.3-7.9,24.6-2.8,28.2,5,3.6,51.2,11.2,59.8,11.8,8.2.6,35.5,1.3,40.1-5.9s1.1-5.1-1-7.2l-56.1-36.9c1.9-17.3,3.9-34.7,6-52,31.4,5.6,62.9,11.1,94,18,11.2,2.5,22.8,5.2,34,8,32.3,8.1,66.7,16.8,98,28,4.8,1.7,9.7,6.3,15.8,6.2l.4,4.7c-6.9,28.9-12.8,58.3-20.1,87.1-2,7.7-7.4,34.2-9.9,38.7s-7.3.7-10.1,1.3c-1.6-19.2-31.6-17.9-34-2l-56.9-4.1c-18.6,2-38.1-1.6-56-2-79.1-1.8-158.3,1.8-237.1,8.1-.4-4.9-3.3-11-8-13-2.8-1.1-16.6-1.9-18-1-1.2-9.1-7.9-14.9-4-24,6.5-15.1,46.9-66,47.8-75.4s-28.4-13.3-29.8-21.7c-2.4-14,15.2-52,14.2-68.8,13.3,0,26.6-.3,39.9-.1Z"/>
  <path class="st6" d="M240.7,165.4c11.5,28.2,21.2,57.3,31.2,86.1,9.5,2.7,83.4-16.5,96.1-21.8,7.7-3.2,33.6-16.3,38.5-21.5,12.9-13.5-2.7-26.1,28.1-28.9,4.7-.4,13.6-.7,18,0,10.2,1.5,7.9,17,5.6,24.6s-7.6,6.4-11.6,7.4c-3.3.8-7.9-1.3-12,1s-5.6,9.1-8.1,11.9c-11.6,13.4-18.6,9.4-33.3,14.7-42.5,15.4-87.8,48.3-130.6,65.5-2.9,1.1-11.9,0-14-1.2s-11.9-10.7-13.1-11.9c-9.5-10.5-20.8-39.8-26.9-54.1s-8.5-26.7-10.3-27.8c-3.6-2.3-31.5,8.7-41.8-5.2-17.9-24.2,27.1-73.4,51.1-75.2s18.2,5.3,23,11.1,7.4,18.8,10,25Z"/>
  <path class="st1" d="M320.7,33.4c-9.8-1-22.7,2.5-30.7,8.3-7.7,5.6-11.1,21.4-20.8,23.4-6.3,1.3-17.8-12-20.4,5.5s-.4,18.6,11.9,17.8c-4.1,8.6-8.6,10.2-18,9-.6-7.2-8.6-16.7-10.9-24.1-4.7-14.4-4.3-27.8.9-41.9-42.6,16.1-.1,61.7-14,92v2c-4.6-1-21.6-.5-26.8.2-21.3,2.8-44.2,25.6-57.2,41.8-21.1,1-46.6-7.8-36,24-20.6-.3-24.4-30.9-19.9-46.9,10.3-36.4,60.1-27.2,69.7-42.3,5.3-8.3-.6-28.3.2-39.8,3.4-45,35.8-70.4,80.1-60.1,6.8,1.6,18.4,8.8,23,9s17.7-3.7,24.1-3.7c20.8,0,34.9,8.5,44.8,25.8Z"/>
  <path class="st3" d="M152.7,307.4c-1,7.1-4.3,18.3-4,24s0,4.9,1.8,7.1c16.6,22.4,33.7,45,48.2,68.9,8.5,14,18.8,30.4,24,46s8.2,30.5,8,42c-17.2,5.3-34,7-52,6,1.4-10.3.9-24.8-6-33-3.1-3.7-7.7-5.5-11.1-8.9-18-18.3-37.3-36.4-54.9-54.1s-2.2-6.2-7-10c-13.6-10.7-29.2-13.1-41-30-20.3-29,1.1-55.5,12-82,15.2,30.2,52.7,32.8,82,24Z"/>
  <path class="st8" d="M218.7,125.4c7.1,1.5,17.8,15,20,22,1.6,5.3,2.1,12.4,2,18-2.5-6.2-6.8-21.3-10-25-4.8-5.7-15.3-11.6-23-11.1-24,1.8-69,51-51.1,75.2,10.3,13.9,38.2,2.9,41.8,5.2s8.5,23.6,10.3,27.8c-20,9.3-47.2,11.8-51.5,37.5-1.8,10.5-2.9,21.9-4.5,32.5-29.3,8.8-66.8,6.2-82-24,17.2-41.6,35.4-80.2,64-116,13-16.2,35.8-39,57.2-41.8,5.3-.7,22.2-1.2,26.8-.2Z"/>
  <path class="st10" d="M446.7,211.4c-3.9,8.4.1,20.2-9.3,25.7l-116.7,52.3c29.4,61,64.1,119.6,95.1,179.9,3,15.1.8,28.2-7.1,41.1-1.6,2.6-1.7,5.8-6,4.9-.3-3.8-13.2-25.3-16.2-30.8-2-3.6-5.6-2.9-5.8-3.2-.4-.5.3-6-1.6-9.4-30.5-55-62.7-109.1-92.8-164.2-7.4-4.4-30.1,18.2-40.8,9.8-5.4-4.2-3.1-11.8,3.2-14.2,2.1,1.2,11.1,2.3,14,1.2,42.8-17.2,88.1-50.2,130.6-65.5,14.7-5.3,21.7-1.3,33.3-14.7,2.5-2.9,6.1-10.8,8.1-11.9,4.1-2.3,8.7-.2,12-1Z"/>
  <path class="st4" d="M108.7,467.4c5,.3,18.4.7,21.5,4.5,5.6,6.7,8.6,45.8,16.5,55.5l16,68c-29.3-3.1-58.4-5.6-88-6l-30.1-112.9c10.6-3.1,21.1-5.5,32.1-7.1,11.2-1.6,20.3-2.7,32-2Z"/>
  <path class="st4" d="M440.7,655.4c-31.3-11.2-65.7-19.9-98-28,15.4-29.3,31.8-58.2,47.7-87.3,2.4-4.4,9.1-12,10.3-14.7,40.4,28.6,52.2,83.4,40,130Z"/>
  <path class="st6" d="M320.7,33.4c1,1.8,4.5,2.3,5.6,7.4,4.6,21.4-6,33.5-7.1,50.1-.3,4.6,3.4,10.5.6,14.6-2.8,4.2-8.3-1-11.1.7-3.7,2.3-8.7,22.1-18,26.1-13.3,5.7-16.2-6.3-24.5-4.7-10.2,2.1-17.6,16.8-27.5,19.7-2.2-7-12.9-20.5-20-22v-2c8.8-7.2,25-13,24-26,9.4,1.2,13.9-.4,18-9-12.3.8-13.5-6.7-11.9-17.8,2.6-17.5,14.1-4.2,20.4-5.5,9.7-2,13.2-17.7,20.8-23.4,8-5.8,20.9-9.3,30.7-8.3Z"/>
  <path class="st5" d="M402.7,515.4c.2,2.2-1,8-2,10-1.3,2.7-7.9,10.3-10.3,14.7-15.9,29.1-32.2,58-47.7,87.3-11.2-2.8-22.8-5.5-34-8l72-138c.2.3,3.7-.5,5.8,3.2,3,5.5,15.9,27,16.2,30.8Z"/>
  <path class="st10" d="M58.7,365.4c11.8,16.9,27.4,19.3,41,30,4.8,3.8,5.7,8.7,7,10-3.2,1.2-6.6,1.4-10,2-12.8,2.3-19.1,2.5-32,0-14.6-2.8-49-13.8-36.8-33.8,6.8-11.1,19.8-7.8,30.8-8.2Z"/>
  <path class="st5" d="M96.7,407.4l12,60c-11.7-.7-20.8.4-32,2l-12-62c12.9,2.5,19.2,2.3,32,0Z"/>
  <path class="st10" d="M452.7,179.4c-4.4-.7-13.3-.4-18,0,1.7-9.6,3.5-54.2,21.2-40.2,7,5.5-3.2,31.3-3.2,40.2Z"/>
  <path class="st6" d="M230.7,495.4c0,4.3-1.4,11.2-2,16-3.9,29.7-10.3,59.5-14,90-2.1,17.3-4.1,34.7-6,52-10.1-2-8.9,10.2-13.3,11.7-7.4,2.6-19-1.7-26.7-1.7,3-25,.8-43.6,0-68-1-31.1-2.1-44.8,4-76,1-5,5.5-14.1,6-18,18,1,34.8-.7,52-6Z"/>
  <path class="st7" d="M208.7,653.4l56.1,36.9c2.1,2.2,2.7,4.5,1,7.2-4.6,7.2-31.9,6.5-40.1,5.9-8.7-.6-54.8-8.1-59.8-11.8-5.1-3.6,2.2-23,2.8-28.2,7.8,0,19.3,4.3,26.7,1.7,4.3-1.5,3.1-13.7,13.3-11.7Z"/>
  <path class="st2" d="M172.7,519.4c-6.1,31.2-5,44.9-4,76-2-.1-4,.2-6,0l-16-68c7.5-4.4,17.3-7.6,26-8Z"/>
  <path class="st4" d="M416.7,793.4c2.2,26.1-37.8,23.7-34-2,2.4-15.9,32.4-17.2,34,2Z"/>
  <path class="st4" d="M32.7,793.4c2.3,27.6-39.8,22.6-31.6-4.6.2-.5,5.1-9.1,5.6-9.4,1.4-.9,15.2,0,18,1,4.7,2,7.6,8,8,13Z"/>
  <path class="st9" d="M288.7,423.4c-8,.6-14.5,2.8-22.8,1.8-3.3-.4-24.4-8.7-25.2-9.8s.7-7.3,0-8c-1.5-1.5-36.1,1.1-42,0-14.5-23.9-31.5-46.5-48.2-68.9-1.7-2.2-1.7-4.5-1.8-7.1,45.1,1.9,104.1,11.5,142.6,36.4,25.7,16.5,7.6,34.9-2.6,55.6Z"/>
  <path class="st2" d="M288.7,423.4c-15.7,31.9-32.5,64.6-60,88,.6-4.8,1.9-11.7,2-16,.2-11.5-4.3-30.9-8-42l18-38c.7,1.1,21.9,9.4,25.2,9.8,8.3,1,14.8-1.2,22.8-1.8Z"/>
</svg>