<?xml version="1.0" encoding="UTF-8"?>
<svg id="Calque_1" xmlns="http://www.w3.org/2000/svg" version="1.1" viewBox="0 0 840.3 650.9">
  <!-- Generator: Adobe Illustrator 29.8.2, SVG Export Plug-In . SVG Version: 2.1.1 Build 3)  -->
  <defs>
    <style>
      .st0 {
        fill: #31281f;
      }

      .st1 {
        fill: #638faf;
      }

      .st2 {
        fill: #9398ab;
      }

      .st3 {
        fill: #373b4b;
      }

      .st4 {
        fill: #86a799;
      }

      .st5 {
        fill: #feb5b1;
      }

      .st6 {
        fill: #535971;
      }

      .st7 {
        fill: #545a71;
      }

      .st8 {
        fill: #8e5dd2;
      }

      .st9 {
        fill: #fdb5b1;
      }

      .st10 {
        fill: #fc7e7e;
      }
    </style>
  </defs>
  <path class="st2" d="M243.5,182.6c2.6,4.1,12.3,9.4,16,13.5,7.5,8.1,13.2,24.3,19.6,34.4,9,14.1,14.2,21.4,31.4,24.1.9.1,1.8.8,4,1,2.5,9.7,7.6,18.5,18,21,4.6,89-11.1,182-45.5,264-13.8,32.9-39.7,82-70.5,101.5s-23.5,10.4-39.9,7.6c.6-2.5-1.3-2-2.6-2.8-25.2-14.4-34.6-50-39.1-77-16.9-102.2,16.9-267.9,77.5-352.9,9.2-12.9,19.5-23.7,31.2-34.3ZM249.2,282.8c-10.3,1.7-22.3,15.7-28.1,23.9-33.2,46.6-52,141.4-40.1,196.9,7.2,33.6,27.6,51.6,55,21,39.2-43.7,62.2-158.9,45-214-4.8-15.4-12.9-31-31.8-27.8Z"/>
  <path class="st4" d="M633.5,269.6l5.5,12,148.4,275.6c.5,1.8-5.1,2.6-6.7,3.1-17.6,5.4-36,6.8-54.2,8.3-39.3-54.1-80-107.6-119-162,.2-.5.9-1.4.7-1.7-5.3-13.2-27.9-35.1-36.8-48.8-1-1.6-.7-3.7-1.2-4.3s-2.3-.3-3.2-1.2c-1.5-1.6-7.2-12.2-9.6-10-1.9,1.7,9.2,11,7.6,14-16.8,13.1-34.1,25.9-49.6,40.5-10.5,9.9-32.7,32.6-35.5,46.5-3,14.3,4.8,45.8,8,61.1,5.3,25,12.1,49.7,18.5,74.5l-21,.5c-1.8-10.2-11.6-29.8-15.5-41-8.6-25.4-21.7-64.1-22.6-90.4-1.5-45.4,59.4-95.2,90-123.5,26-2.5,50.6-13.8,71.5-29l24.5-24Z"/>
  <path class="st3" d="M210.5,157.6c-2.2,5.2-7.8,8.8-11.5,13-41.5,46.3-70.3,113.3-88.8,172.2-26.5,85-41.6,182.4-7.9,267.4l13.2,26.3c-19-3.9-38.1-7.4-57-12-44.6-97.8-32-207.9-1.3-307.8,16.3-53,40.6-109.9,76.3-152.7,5.1-6.1,12-11.8,16-18.5,19.7,2.4,41.3,8,61,12Z"/>
  <path class="st1" d="M524.5,114.6c6.1-2.3,16.9-2.7,23.4-1.9,32.8,4,42.1,68.6,56.2,92.8s26.8,28.9,42.4,39.1c-.9,7.5-11.8,18.1-13,24s0,.7,0,1l-24.5,24c-20.9,15.2-45.5,26.5-71.5,29-9.2-9.8-19.4-24.3-21.6-37.9-2.2-13.8.7-28.3.6-42.1,5.7-.7,2.2-11.6,0-14.2-3.8-4.6-20.9-5.1-20-9.2s27.6-25.4,28-33.6c2.4.7.2,8.1,1,9,4.2.3,3.3-7.4,3-10.5-1-12.8-6.8,2.1-10.2,6.9-11.5,16-27.3,30.1-43.3,41.3-2.9,0-9.3-6.9-12.5-8.6s-1.3-1.5-3-1c-8-10.5-14.7-20.1-18.5-33-1.4-5-1.7-10.2-3.5-15,.3-.5-.4-2.1,1-3.5,3.4-3.5,24.4-14.4,30.5-18.5s13.6-10.2,20.5-15c10.4-7.2,23-18.5,35-23Z"/>
  <path class="st6" d="M274.5,170.6c-5.5,2-12,1.5-17,5-4.6-.5-12.9-3.5-14.6,3-.3,1,0,3.2.6,4-11.7,10.5-22.1,21.4-31.2,34.3-60.6,85-94.3,250.7-77.5,352.9,4.5,27,13.9,62.6,39.1,77s3.2.3,2.6,2.8c-20-3.4-41-8.8-61-13l-13.2-26.3c-33.7-85.1-18.6-182.4,7.9-267.4,18.4-59,47.2-126,88.8-172.2,3.7-4.2,9.4-7.8,11.5-13,21,4.2,43.2,8.2,64,13Z"/>
  <path class="st7" d="M149.5,145.6c-4,6.7-10.9,12.4-16,18.5-35.7,42.8-60,99.7-76.3,152.7-30.7,99.8-43.4,210,1.3,307.8-2.7-.7-6.1-.6-9-1.5-26.5-8-38.7-46.1-43.5-70.5-20.6-104.2,13.8-277.6,76.7-364.3,15.7-21.6,37.7-46.3,66.8-42.7Z"/>
  <path class="st4" d="M606.5,406.6c-23.8,17-44.3,44.2-68,61-5.9,4.2-14.2,7.9-19.3,13.2s-2.8,4.9-.2,3.8c5.1-2,13.4-11.9,19.5-14,7.6,32.9,17.3,65.3,26,98-18.2,3.3-36.1,9.4-54.9,8.9-9-38.4-22.7-79.2-27-118.5-2.3-21.5,6.2-31.6,19.8-46.9,18.6-20.8,42.6-38.5,64.7-55.3l39.3,49.9Z"/>
  <path class="st4" d="M813.5,547.6c-4.7.9-19.3,10.5-23,8.6l-153.5-284.6-3.5-3c1.2-5.9,12.1-16.5,13-24,13.9,9,20.8,10.6,30.2,26.3,43.8,91.4,91.7,181,135.7,272.3.7,1.4,1,4.2,1.1,4.4Z"/>
  <path class="st5" d="M257.5,175.6c.3,0,1.3.9,3,1-.2,2.5,1.5,2.5,3,3.5,6.2,4.2,12.9,7.7,18.9,12.1,12.8,9.3,15.6,18,34.1,16.4,30.2-2.6,61-12,89.5-22,3.9-1.4,30.6-10.6,31.5-12,1.8,4.8,2.1,10,3.5,15,3.7,12.9,10.5,22.5,18.5,33-28.4,16-63.3,23.2-95.5,27-16.4,1.9-32.7,1.9-49,3-1.9.1-3.7-.2-4.4,2.1-17.2-2.6-22.4-9.9-31.4-24.1-6.4-10.1-12.1-26.3-19.6-34.4-3.7-4.1-13.4-9.4-16-13.5s-.8-3-.6-4c1.7-6.5,10-3.5,14.6-3Z"/>
  <path class="st3" d="M422.5,92.6c-2.5.5-3.2-3.1-3.8-4.7-9.8-28.3,17.6-47.9,42.8-50.3-9.3-9.6-17.5-25-2.7-34.2,16.9-10.4,22.9,6,33.2,13.2s13.2-.9,20.1-.9c16.4,0,18,21.7,3.7,28.7s-8.3,3.2-9.8,3.2h-16.5c14.7,8.8,31.1,40.8,20,56-5.9,8-21.3,6.9-28,.5,10.8-6.7,10.8-24.9-3.6-25.4-9.3-.4-10.7,10.9-13.4,12.5s-8.9,1.5-10.5,1.5c-10.1.4-20.7-2-28.4-8.6s-3.4-6.4-4.2,0c-.4,3.6.5,5.5,1,8.6Z"/>
  <path class="st8" d="M820.5,572.6c5,9.2,11.1,19.8,15.2,29.3s8.5,13.9-.2,20.1c-19.6,14-106,15.5-131.5,13.6-6-.5-12-.7-10.3-8.3,1.5-6.6,10-9.7,14.7-13.3,8.2-6.2,31.9-27.6,39.1-30.4,8.4-3.3,18-2.6,26,1.5,5.2,2.7,5.8,5.9,12.4,5.4,9.6-.8,20.8-5.8,28.1-11.9,2.4-2,3.7-5.4,6.5-6Z"/>
  <path class="st8" d="M567.5,585.6c0,.2,1.6.9,2.2,2.3,2.2,5,15.4,31.8,11.2,34.9-44.4,10.3-90,14.7-134.9,21.9-26-4.8-.9-20.4,9.2-26.8,9.6-6,27.9-13,34.8-20.3s1-2.7,1.8-3.6c1.3-1.4,4.7-2.8,6.7-3.3,4.1-1.1,4.9-1.1,9,0,5.9,1.5,10.7,6.9,13.7,7.8,12.1,3.5,36.2-5.3,46.3-12.8Z"/>
  <path class="st5" d="M455.5,228.6c2.6,8.7,8.9,15.6,15,22-16.4,6-32,14.2-49,18.5-20.1,5.1-69.8,12.1-89,7.5-10.4-2.5-15.5-11.3-18-21,9.4.8,26.5-1.1,36.5-2,33.1-3,74.7-10.2,104.5-25Z"/>
  <path class="st9" d="M509.5,103.6l15,11c-12,4.5-24.6,15.8-35,23l-1-2c2.4-1.4,7.9-18.1,7-19s-2.2.1-3,0c-.2,5.5-3.2,14.3-6,19s-5.5,4.9-8.1,6.4c-15.6,9.2-22.1,4.4-32.9-7.9-1.3-1.5-3-5.4-4-6-2.5-1.6-6.6,1.9-9.1.1s-.6-8.9-1.2-11.8c-1.3-7.2-7.1-14.4-8.8-23.7s-1.5-5-1-8.6c.7-6.4,2.3-1.7,4.2,0,7.7,6.7,18.4,9.1,28.4,8.6s9.8-1.1,10.5-1.5c2.7-1.6,4.1-12.8,13.4-12.5,14.4.6,14.4,18.7,3.6,25.4,6.7,6.4,22.1,7.5,28-.5ZM483.5,100.6c8-14.6-7.5-29.7-13-10,3.5.7,3.2-7.8,6.5-7,2.5.6,5.1,10.9,2.3,12.8s-4.3-.4-4.8,2.2c3.6-.9,5.7,2,9,2Z"/>
  <path class="st0" d="M485.5,577.6l21-.5c-6.4-24.7-13.3-49.5-18.5-74.5-3.2-15.3-11-46.8-8-61.1,2.9-13.9,25.1-36.5,35.5-46.5,15.5-14.6,32.8-27.4,49.6-40.5,1.6-3-9.4-12.3-7.6-14,2.4-2.2,8.1,8.4,9.6,10s2.8.8,3.2,1.2.2,2.7,1.2,4.3c8.9,13.7,31.4,35.6,36.8,48.8.1.3-.5,1.2-.7,1.7h-1l-39.3-49.9c-22.1,16.8-46.2,34.6-64.7,55.3-13.7,15.3-22.2,25.4-19.8,46.9,4.3,39.3,18,80.1,27,118.5,18.7.5,36.7-5.5,54.9-8.9,0,.3.7.9,1,2-25.5,6.9-52.5,12.6-79,9-.2-.2-1.4.3-1.9-.2s.9-1.7.9-1.8Z"/>
  <path class="st0" d="M813.5,547.6c.1.2.6-1.1,2,2-27.2,13.4-57.5,21.1-88,21-.5-.7-.7-1.6-1-2,18.2-1.5,36.6-2.9,54.2-8.3,1.6-.5,7.2-1.3,6.7-3.1l-148.4-275.6-5.5-12c0-.3,0-.7,0-1l3.5,3,153.5,284.6c3.7,1.9,18.3-7.7,23-8.6Z"/>
  <path class="st4" d="M815.5,549.6c2.1,4.4,4.1,8.9,6,13.4,0,.3-4.3,2.3-5,2.6-19.7,7.7-51.3,16.1-72,16-1.2,0-10.3-.9-10.8-1.2-.7-.4-5-8.1-6.2-9.8,30.5.1,60.8-7.6,88-21Z"/>
  <path class="st4" d="M565.5,570.6c.9,3.4.6,8.8,1,11l-27.7,5.8-31.3,3.2c-4.1-1.1-4.9-1.1-9,0-1.7-2-7.3-1.1-8.8-2.2s-2.5-8.2-3.2-8.8c26.5,3.6,53.5-2.1,79-9Z"/>
  <path class="st1" d="M506.5,227.6c-4.7,4.2-28.4,27.1-33.3,25.9s-1.9-2-2.7-2.9c-6.1-6.4-12.4-13.3-15-22,1.7-.9,4.6-2.2,6-3,2.8,1.9,10.5,10,13.5,10,3.4,0,15.6-13.3,18.1-13.8s11.1,5,13.4,5.9Z"/>
  <path class="st9" d="M816.5,565.6c.9,2.6,2.7,4.7,4,7-2.8.5-4.1,4-6.5,6-7.3,6.1-18.5,11.2-28.1,11.9-6.6.5-7.1-2.7-12.4-5.4-8-4.1-17.6-4.8-26-1.5l-3-2c20.7,0,52.3-8.3,72-16Z"/>
  <path class="st2" d="M316.5,207.6c-2.1.2-4-.6-6-1-12-6.4-29.1-30.6-42.6-31-2,0-3.8,1-4.4,1-1,0-2,0-3,0-1.7,0-2.7-1-3-1,5-3.5,11.5-3,17-5,22.5,5.2,33.2,15.7,42,37Z"/>
  <path class="st9" d="M566.5,581.6c.1.6.9,3.8,1,4-10,7.5-34.2,16.3-46.3,12.8-3-.9-7.8-6.3-13.7-7.8l31.3-3.2,27.7-5.8Z"/>
  <path class="st0" d="M462.5,223.6c3.2,1.8,9.6,8.7,12.5,8.6,16-11.2,31.8-25.3,43.3-41.3,3.4-4.7,9.3-19.7,10.2-6.9s1.1,10.8-3,10.5c-.8-.9,1.4-8.3-1-9-.3,8.2-27.3,30.6-28,33.6s16.2,4.6,20,9.2,5.6,13.5,0,14.2c0-4.8-.4-12.1-5.3-14.2s-3.7-.4-4.7-.8c-2.2-.8-12.6-6-13.4-5.9-2.5.5-14.7,13.8-18.1,13.8-3,0-10.7-8.1-13.5-10,.3-.2.6-1.5,1-2Z"/>
  <path class="st10" d="M263.5,176.6c5.5,4.2,11.8,7.1,17.3,11.2,10.9,7.9,15.5,15.6,29.7,18.8,2,.4,3.9,1.2,6,1v1c-18.5,1.6-21.3-7.2-34.1-16.4s-12.8-7.9-18.9-12.1-3.1-1-3-3.5c1,0,2,0,3,0Z"/>
  <path class="st0" d="M538.5,467.6v3c-6.1,2.1-14.4,12-19.5,14-2.6,1-1.5-2.1.2-3.8,5.2-5.2,13.4-8.9,19.3-13.2Z"/>
  <path class="st10" d="M486.5,135.6c2.8-4.7,5.8-13.5,6-19,.8.1,2.8-.2,3,0,.9.9-4.6,17.6-7,19s-1.4-.1-2,0Z"/>
  <path class="st3" d="M249.2,282.8c18.8-3.2,26.9,12.4,31.8,27.8,17.3,55.1-5.8,170.3-45,214-27.4,30.6-47.9,12.6-55-21-11.8-55.6,7-150.3,40.1-196.9,5.8-8.2,17.9-22.1,28.1-23.9Z"/>
  <path class="st10" d="M462.5,223.6c-.4.5-.7,1.8-1,2-1.4.8-4.3,2.1-6,3-29.8,14.8-71.4,22-104.5,25-10,.9-27.1,2.8-36.5,2-2.2-.2-3.1-.9-4-1,.7-2.3,2.6-1.9,4.4-2.1,16.3-1.1,32.7-1,49-3,32.3-3.8,67.1-11,95.5-27,1.7-.5,2.1.5,3,1Z"/>
  <path class="st10" d="M483.5,100.6c-3.3,0-5.4-3-9-2,.5-2.6,3.7-1.4,4.8-2.2,2.8-1.9.2-12.2-2.3-12.8-3.3-.8-3,7.7-6.5,7,5.5-19.7,21-4.6,13,10Z"/>
  <path class="st9" d="M310.5,206.6c-14.2-3.2-18.8-10.9-29.7-18.8-5.5-4-11.9-7-17.3-11.2.6,0,2.4-1.1,4.4-1,13.4.4,30.6,24.6,42.6,31Z"/>
</svg>