<?xml version="1.0" encoding="UTF-8"?>
<svg id="Calque_1" xmlns="http://www.w3.org/2000/svg" version="1.1" viewBox="0 0 665.2 626.7">
  <!-- Generator: Adobe Illustrator 29.8.2, SVG Export Plug-In . SVG Version: 2.1.1 Build 3)  -->
  <defs>
    <style>
      .st0 {
        fill: #383564;
      }

      .st1 {
        fill: #393664;
      }

      .st2 {
        fill: #ffab89;
      }

      .st3 {
        fill: #f95b56;
      }

      .st4 {
        fill: #58557d;
      }

      .st5 {
        fill: #706f90;
      }

      .st6 {
        fill: #feba99;
      }

      .st7 {
        fill: #ededec;
      }

      .st8 {
        fill: #5abaf7;
      }

      .st9 {
        fill: #d35b56;
      }

      .st10 {
        fill: #3b3866;
      }
    </style>
  </defs>
  <path class="st0" d="M541.1,340.7c121.1,12.5,168.5,173.2,74,253-44.7,37.8-123.4,45.3-172,11-120.6-85-52.6-279.6,98-264ZM518.7,427.2c-74,5.8-65.5,119.3,9.4,113.5,73.2-5.7,65.2-119.4-9.4-113.5Z"/>
  <path class="st0" d="M147.1,252.7c-1.2,6.2,3.1,3.5,8,4,13.7,1.3,24,5.6,36,12-1.5,8.8-8,31.7-8,37v36c0,2.1-1.6,11-2,15-6.6-1.7-8.5-10-14-15-42.8-39.4-106.6,16.8-72.9,64.9,21.4,30.6,66,24,84.9-5.9,3.5,4.3,23,17.3,28.6,15.7,15.4-4.4-3.8-25.6,8.3-25.7,18.8,7.1,38,13.2,57.1,19.1,2.9.9,6.1.3,8,.9s1.9,2.4,3.9,3c7.5,2.3,32.8,11.4,38.1,11,0,4.7-.1,9.3,0,14-12.7-2.2-25.7-6.1-38-10-7.4-2.3-55.4-20-58-18,6.2,9,8.1,23,12,32-11.1,15.5-25.5,32-42,42-22.5,13.6-51,17.6-77,16-6.9-.4-16.9-4.9-23-4-10.6-7-24.2-7.5-34-16C15.5,439.5-6.9,377.6,26.8,317.4s68.1-61.4,116.3-64.7c1.3,0,2.7,0,4,0Z"/>
  <path class="st6" d="M317.1,118.7c10.3,5.9,29.4,18.5,36,28,5.5,7.9,10.1,20.7,7.1,30.1-3.8,11.8-31,23.5-31.1,28.8s10.8,20.7,13,27.1,4,25.5,5.5,27.5,23.2,6.3,25.7,5.6,22.8-16.2,28.6-19.5c11.9-6.8,23.2-10.4,35.3-15.7,30.9,8.2,59.3,23.9,70,56-31.5,24.3-76.5,38.4-113.8,52.2,0,15.6,12.7,29,9.8,45.8-17.9,20.5-29.8,47.1-34,74h-2c-.2-1.9.3-4.1,0-6s1.2-5.4-1.2-6-6.2.4-8.8,0c0,2,0,4,0,6s.7,6.3-.3,7.7c-2.5,3.7-21.6-.7-25.8-2.7-9.3-4.4-7.7-10.2-8-19s0-9.3,0-14c5.1-.4,16.2-9.1,15.9-14.7-.5-12.3-12.8-51.3-17.4-64.8-2.4-7.2-7.3-13.3-8.5-16.5-9.3-24.3-13.7-39.7-18-66s.5-7,0-10c-6-35.1-33.7-58.7-27.8-100.8,2-14.4,18.7-38.6,34.8-37.3,6.3.5,9.7,5.7,15,4.1Z"/>
  <path class="st2" d="M207.1,150.7c7.6,27.3,14.2,55.1,20.2,82.8.7,3.3,3.3,5.7,3.8,9.2.9,6.2-5.8,43.1-8,50s-2.7,1.3-3.6,3.4-1.6,7-2.4,8.6-8,6.1-7,10c3.7-2.2,6.3-7.5,9-10,2.7-2.4,7.5-7.6,8-8s3.9.1,5.8-1.1c19.4-13,40.6-24,62.2-32.9,4.3,26.3,8.7,41.7,18,66-6.2,1.2-45.5,16.8-46.1,19.3,3.4,21.2,13.3,40.9,14.1,62.7-1.9-.6-5.1,0-8-.9-19.1-5.9-38.4-12.1-57.1-19.1-12.2,0,7.1,21.4-8.3,25.7s-25.1-11.4-28.6-15.7-3.9-7.6-4-8c-.4-2.6,1.6-10.1,2-14,.8-6.9,3.4-15.2,4-22s2-12.9,2-15v-36c0-5.3,6.5-28.2,8-37,2-11.6,6.2-27.1,6-39-.4-26.1-13.4-41.9,1-69,3.8-7.2,8.1-8.8,9-10ZM211.1,374.7c1.6-1.6-12.3-36.7-12.2-13,0,8.1,4.2,12,12.2,13Z"/>
  <path class="st3" d="M483.1,170.7c-2.2,15.1-1.6,30.5-7.8,44.7-13.4,3.6-25.8,10-38.2,15.3-12.1,5.2-23.5,8.9-35.3,15.7s-26.2,18.8-28.6,19.5-24.8-4.4-25.7-5.6c-1.5-2-3.5-21.6-5.5-27.5s-13.1-22.6-13-27.1,27.3-17,31.1-28.8c3-9.5-1.6-22.2-7.1-30.1,15,9.5,39.3,32.2,57.2,33.9,19.6,1.8,40.8-17.8,65.7-13.8,4.4.7,6,3.6,7,3.9Z"/>
  <path class="st6" d="M157.1,34.7c8.4-4.5,25.3-9.4,34-5,7.8,3.9,5,26,6,27,3.9,3.9,8-6.2,11.8-7.2,10.7-2.9,22.8,7.5,15.9,18-2,3-8.7,4.6-7.8,8.2,7.8,7.4,17.3,10.2,28,9,.5,7.3,5.1,15.1,12,18-8.5,33.2-14.4,65.5-12,100-25.7.3-18.1-56.1-26.9-64.2s-4.8-1.5-5.1-1.8c-2.2-2.5-7.2-14.2-11.3-15.7-7.8-2.7-17.3,4.4-24.7.7-2.9-1.4-8.8-14-12-18-4.6-5.9-8.2-1-8.2-14,0-15.2-3-17.8-3.9-29.9s1.3-16.2,4.1-25.1Z"/>
  <path class="st3" d="M317.1,118.7c-5.3,1.6-8.7-3.6-15-4.1-16.1-1.3-32.8,22.9-34.8,37.3-5.8,42.1,21.8,65.7,27.8,100.8-22.5,5.7-43.8-.7-64-10-.5-3.4-3.1-5.9-3.8-9.2-6-27.8-12.6-55.5-20.2-82.8.5-.7,1.8-11.7,6-14,.3.4,3.6.4,5.1,1.8,8.8,8.1,1.2,64.5,26.9,64.2-2.4-34.5,3.6-66.8,12-100,9.4,4,21.8.7,32.1,2.9,6.7,1.4,21.4,9.4,27.9,13.1Z"/>
  <path class="st10" d="M157.1,34.7c4.3-13.6,10.5-23.1,24-29,11.4-5,36.7-7.3,48.6-4.6s11.2,11.2,16.3,11.5c8.5.4,20.8-11.4,31.1,3s5.7,36.8,3.1,45.1c-4,12.9-22.8,11-33.1,7.9-1.6,5.4-2.4,10.3-2,16-10.7,1.1-20.2-1.6-28-9-.9-3.6,5.8-5.2,7.8-8.2,6.9-10.5-5.3-20.9-15.9-18-3.8,1-7.9,11.1-11.8,7.2s1.8-23.1-6-27c-8.8-4.4-25.7.5-34,5Z"/>
  <path class="st8" d="M507.1,286.7c-10.7-32.1-39.1-47.8-70-56,12.4-5.3,24.8-11.7,38.2-15.3,6.2-14.2,5.6-29.6,7.8-44.7,15.3,4.7,19.2,6.1,28.8,20.2,17.6,25.6,26.9,67.9,2.3,92s-5.8,2.8-7.1,3.8Z"/>
  <path class="st5" d="M541.1,340.7c-150.6-15.6-218.6,179-98,264-1.3,0-2.7,0-4,0-17-13-38.7-29.4-50-48-3.8-6.4-13.9-28.9-16-36-3-10.1-5.7-27.6-6-38s1-14.6,2-22-.1-1.4,0-2c4.2-26.9,16.1-53.5,34-74,32.7-37.4,89.5-58.1,138-44Z"/>
  <path class="st5" d="M143.1,252.7c-48.2,3.2-91.5,20.2-116.3,64.7s-11.3,122.1,36.3,163.3c-91.4-46.6-81-186.6,15-222,20-7.4,44.2-11.1,65-6Z"/>
  <path class="st5" d="M147.1,252.7c5-.3,9.3-1.5,8,4-4.9-.5-9.2,2.2-8-4Z"/>
  <path class="st5" d="M518.7,427.2c74.6-5.9,82.6,107.7,9.4,113.5-74.9,5.9-83.4-107.7-9.4-113.5ZM520.6,471c-12.4,2.2-13.7,21-1.6,24.8,21.2,6.7,22-28.5,1.6-24.8Z"/>
  <path class="st2" d="M285.1,428.7c4.8,18,8.3,36.3,14,54s1.3,8.1,2,10c-6.6-1-16.7,1.5-22.6,0-1.9-.5-7.6-15.2-19.4-12-6.5-10.4-10.6-22.3-15.6-33.5-1.1-2.5-4.2-4.1-4.4-4.5-3.9-8.9-5.8-23-12-32,2.6-2,50.6,15.6,58,18Z"/>
  <path class="st3" d="M259.1,480.7c11.8-3.2,17.5,11.6,19.4,12,5.9,1.4,16-1.1,22.6,0,.1.3,3.4,1.8,4.4,4.5,2.8,7.3,7,16.7-.9,22.2-28,1.9-57.9,11.8-85.6,4.4-24-6.4,19.7-21.8,26-26.2,7-5,8.2-10.2,12.1-14.9s1.9-2,2-2Z"/>
  <path class="st3" d="M389.1,556.7c-14.9,1-30.1,3.3-45.1,2.1s-26.2-2.7-16.9-13.1c4.7-5.3,38.2-18.1,46-25,2.1,7.1,12.2,29.6,16,36Z"/>
  <path class="st5" d="M179.1,400.7c-18.9,29.9-63.5,36.5-84.9,5.9-33.6-48.2,30.1-104.3,72.9-64.9,5.5,5,7.3,13.4,14,15-.6,6.8-3.2,15.1-4,22-8-.9-36.8-13.7-41.9-11.1s-5.2,10.6-.5,13.1c9.5,5.2,29.7,7.8,40.5,12,0,.4,3.7,7.6,4,8Z"/>
  <path class="st4" d="M357.1,452.7c0-2,0-4,0-6,2.7.4,6.6-.6,8.8,0s.9,3.9,1.2,6h-10Z"/>
  <path class="st7" d="M369.1,460.7c-.9-.2-1.9-1.1-2-2h2c-.1.6,0,1.3,0,2Z"/>
  <path class="st10" d="M177.1,378.7c-.4,3.9-2.4,11.4-2,14-10.8-4.2-31-6.8-40.5-12s-4.3-10.6.5-13.1,33.9,10.2,41.9,11.1Z"/>
  <path class="st4" d="M211.1,374.7c-8-1-12.1-4.9-12.2-13-.1-23.8,13.8,11.3,12.2,13Z"/>
  <path class="st4" d="M227.1,296.7c-.5.4-5.3,5.6-8,8h-2c.9-1.6,1.3-5.9,2.4-8.6s3.5-3.2,3.6-3.4l4,4Z"/>
  <path class="st9" d="M219.1,304.7c-2.7,2.4-5.3,7.7-9,10-.9-3.9,6-8.1,7-10h2Z"/>
  <path class="st1" d="M520.6,471c20.4-3.6,19.6,31.5-1.6,24.8s-10.8-22.6,1.6-24.8Z"/>
</svg>