<?xml version="1.0" encoding="UTF-8"?>
<svg id="Calque_1" xmlns="http://www.w3.org/2000/svg" version="1.1" viewBox="0 0 474.9 607.6">
  <!-- Generator: Adobe Illustrator 29.8.2, SVG Export Plug-In . SVG Version: 2.1.1 Build 3)  -->
  <defs>
    <style>
      .st0 {
        fill: #393664;
      }

      .st1 {
        fill: #ffab89;
      }

      .st2 {
        fill: #f95b56;
      }

      .st3 {
        fill: #58557d;
      }

      .st4 {
        fill: #706f90;
      }

      .st5 {
        fill: #feba99;
      }

      .st6 {
        fill: #fcc227;
      }

      .st7 {
        fill: #5abaf7;
      }

      .st8 {
        fill: #3b3866;
      }
    </style>
  </defs>
  <path class="st7" d="M330.2,415.7c0,8,0,16,0,24h36v-22s16,0,16,0c.6,1.9,1.6,3.8,2.3,5.6,10.6,1.2,21.6.2,32.1-1.8s3.1-3.7,3.6-3.8c4.5-1.2,12.8.8,18,0v22c6,0,12,0,18,0,5.3,29.2,4.1,61.1-10,88-56.9,108.3-251.8,106.8-302-6-19-42.7-10.9-89.1,16-126,57.1,9.2,111.4,34.3,170,20Z"/>
  <path class="st6" d="M252.2,303.7c.7,6.1,17.4,30.7,23.4,33.6,5,2.4,10.8,2,16,4,9.3,3.6,15.1,10.9,23.2,14.8,15.1,7.2,33.3,7,49.4,3.6.8,1.7,4,5.9,6,10,2.1,5.1-3.7,11.7-4,14-10.7-4.6-24.5-.8-36-2,.1,11.3-.1,22.7,0,34-58.6,14.3-112.9-10.8-170-20-12.3-2-19.4-4.5-32-4-5,.2-9.6,2.2-15,2.2-18.4-.2-23.7-12-31-26.2s-.8-6.4-2.4-7.6c-2.1-1.5-22.9-6.2-27.6-8.4,1.6-26.9,6-29.6,31-38,31.8-10.7,78.6-18.5,112-15.9,19.2,1.5,37.9,11.7,57,6Z"/>
  <path class="st0" d="M296.2,129.7c-5.1,18-13.3,35.7-17.1,53.9-.8,3.9-4.8,21,.4,22.2,10.3.8,18.7-7.4,26.5-13.3s41.3-34.6,44.3-39.7.8-13.8-4.1-19.1c1.2.2,3.1-.4,4,0,15.2,5.8,34.6,21.9,42,36-25.4-6.5-30.8,12.8-33.8,33.2-4.2,28.6-9,104.6-3.3,130.9,1.8,8.2,5.5,18.3,9.1,25.9-16,3.3-34.3,3.5-49.4-3.6s-14-11.1-23.2-14.8c-5.2-2-10.9-1.6-16-4-6-2.9-22.7-27.5-23.4-33.6s3.4-8.7,3.9-13.1c2-18.1,2.2-37.6-3.9-54.9s-7-12-8.9-18.1c-7.8-23.8,5.9-44.4,8.9-67.9,13.3-17.1,21.1-20.3,44-20Z"/>
  <path class="st2" d="M292.2,9.7c14.4-9.5,35.2-12.8,51.4-6.4s15.3,12.8,22.8,17.2c17.2,10.2,44.6,12.2,58.7,31.3,17.6,23.8,11.2,79.8,6.5,108.3-2.9,17.7-21.1,58.5,4,65.2,3.3.9,12.4-1.4,10.6,3.4s-13,17.2-14.9,19.1c-11.3,11.1-23,16.2-39.1,13.9,4.3-31.2,15.3-62.8,0-92-7.4-14.1-26.8-30.2-42-36,.5-17.7,11.5-32.7,14-50-2.6,4.1-14.5,10.4-16,12-10.9-2.4-20.7-8.8-28-17,11.4-3.4,18.2-14.4,11.6-25.6s-10.3,10.7-22.7-3.3c-9.3-10.5-3.4-30.2-16.9-40.1Z"/>
  <path class="st5" d="M392.2,169.7c15.3,29.2,4.3,60.8,0,92-1.6,11.8-6.7,33.1-5.9,44.8.6,8.4,8.7,23.7,11,33.2s2.8,18.8,4.9,28.1,2.5,15.9,6.2,20.8c7.1,9.4,11.6-4,11.8,17.2,0,4,0,8,0,12-.6.1-1.6,3.4-3.6,3.8-10.5,2.1-21.4,3.1-32.1,1.8-.7-1.9-1.7-3.8-2.3-5.6-.9-2.8-1.7-8.8-2-12-.4-5,1.8-9.6,1.1-14.1-1.1-7.6-7.9-15.4-11.1-21.9s-5.2-8.3-6-10c-3.6-7.6-7.3-17.7-9.1-25.9-5.7-26.3-.8-102.2,3.3-130.9,3-20.5,8.4-39.7,33.8-33.2Z"/>
  <path class="st5" d="M292.2,9.7c13.5,9.9,7.6,29.6,16.9,40.1,12.4,14,16.2-7.7,22.7,3.3s-.2,22.2-11.6,25.6c7.3,8.2,17.1,14.6,28,17-4.5,4.9-9.9,27.9-7.7,34.8s5.3,2.7,5.7,3.2c4.9,5.3,8.2,12.1,4.1,19.1s-37.4,34.5-44.3,39.7-16.2,14.1-26.5,13.3c-5.2-1.2-1.2-18.2-.4-22.2,3.7-18.2,12-36,17.1-53.9s3.2-2.7,3.9-7c.8-5.4-.3-11.5,0-17-31.4,7.3-21.1-11.6-29.5-27.5s-8.6-5.3-8.6-9.5,8.9-9.2,11.2-15c6.6-17.2-.9-31,19-44Z"/>
  <path class="st1" d="M180.2,159.7c1,17,3.8,44.3,11.6,59.5s.2,3.9,3.4,2.5c3.4-1.4,31.7-34.6,35.9-40.2,7.7-10.2,13.1-21.5,21.2-31.8-3,23.6-16.7,44.1-8.9,67.9,2,6.1,6.8,12.1,8.9,18.1-8.9,4.2-16,11.4-24.7,16.3-8.9,5.1-49.3,24.4-57.1,19.4s-5.1-14.7-5.7-17.3c-7.8-34.9-1.9-69.6-6.6-104.4,9.9,9.2,5.5,10.6,22,10Z"/>
  <path class="st2" d="M54.2,499.7c11.8-.9,8.5,13.4,16,18-1.2,24.9,4,12,9.5,18.5s1.3,8.3,2.7,9.3c2.5,1.8,20.8-.7,25.7.2.5,10.2,8.8,24.3-2.5,30.5-9.3,5.1-63.6,4.8-76.5,3.5-7.8-.8-20.1-3.8-14.6-13.6,1.8-3.2,39-20.2,43.6-27.4-7.3-.8-14.5,1-22,1s-40.4,1.5-35.8-12.7,26.5-12.7,32.5-15.5c5.8-2.7,15.8-11.3,21.2-11.8Z"/>
  <path class="st1" d="M52.2,351.7c4.6,2.2,25.5,6.9,27.6,8.4,1.6,1.2,1.4,5.7,2.4,7.6-6-1.1-3.9,3-4,6.9-1.7,47.7-5.6,95.5-8,143.1-7.5-4.6-4.2-18.9-16-18,4.8-49.1-4.9-98.4-2-148Z"/>
  <path class="st3" d="M190.2,103.7l1,2,1-2c4.4,4.3,20,23.3,19.6,28.7s-10.7,24.3-11.9,25-16.9,2.2-19.7,2.3c-16.5.6-12.1-.8-22-10-.3-.3-2.9-.1-4.9-2s-14.5-21.8-14.8-23.4c-1.1-6.6,10.7-20.8,12-28.2,7.3,1.9,25.3-3.4,30.2-2s6.4,7,9.5,9.7ZM148.2,129.7c.4.9-.3,2.8,0,4,5.4,4.4,14.8-24.8,16.3-25.7s9.5-1.9,11.7-2.3,1.4.1,2,0c2.1-.4,8,1.1,8-1l-8-1c-12-11.9-35.8,11.1-30,26Z"/>
  <path class="st4" d="M438.2,401.7c.3-6.6-.2-13.4,0-20h33c2.2,0,2.9,4.9,3.1,6.9,1.8,15.7-1.6,35,0,51.1-6,0-12,0-18,0s-12,0-18,0v-22c-5.2.9-13.5-1.2-18,0,0-4,0-8,0-12h18c0-1.3,0-2.7,0-4Z"/>
  <path class="st7" d="M438.2,401.7c0,1.3.1,2.7,0,4h-18c-.2-21.2-4.7-7.7-11.8-17.2-3.7-4.9-4.9-15.1-6.2-20.8,14.5,8.4,24.2,22.5,36,34Z"/>
  <path class="st8" d="M190.2,103.7c.4.3,1.7-.3,2,0l-1,2-1-2Z"/>
  <path class="st4" d="M366.2,383.7c-1,6.7.7,15.1,0,22h14c.3,3.2,1.1,9.2,2,12h-16s0,22,0,22h-36c0-8,0-16,0-24-.1-11.3.1-22.7,0-34,11.5,1.2,25.3-2.6,36,2Z"/>
  <path class="st5" d="M82.2,367.7c7.3,14.2,12.6,25.9,31,26.2,5.4,0,10-2,15-2.2,4,24.6,0,46.8-6.6,70.4-7.6,27.3-13.4,32.4-13.4,63.6,0,6.6-.3,13.4,0,20-5-1-23.3,1.5-25.7-.2-1.4-1-1.1-7.4-2.7-9.3-5.5-6.5-10.8,6.4-9.5-18.5,2.4-47.6,6.3-95.4,8-143.1s-2-8,4-6.9Z"/>
  <path class="st7" d="M380.2,405.7h-14c.7-6.9-1-15.3,0-22s6.1-8.9,4-14c3.2,6.5,10.1,14.3,11.1,21.9s-1.5,9.1-1.1,14.1Z"/>
  <path class="st8" d="M176.2,103.7v2c-2.2.4-11.2,2-11.7,2.3-1.5.9-10.9,30.1-16.3,25.7-.3-1.2.3-3.1,0-4,5.3-3.2,9-21,12-23,1.8-1.2,12.8-2.7,16-3Z"/>
  <path class="st1" d="M178.2,103.7c-.7,0-1.3,0-2,0-3.2.3-14.3,1.8-16,3-3,2-6.6,19.8-12,23-5.8-14.9,18-37.9,30-26Z"/>
  <path class="st8" d="M178.2,103.7l8,1c0,2.1-5.9.6-8,1v-2Z"/>
  <path class="st4" d="M178.2,105.7c-.6.1-1.4-.1-2,0v-2c.7,0,1.3,0,2,0v2Z"/>
</svg>