<?xml version="1.0" encoding="UTF-8"?>
<svg id="Calque_1" xmlns="http://www.w3.org/2000/svg" version="1.1" viewBox="0 0 410.2 837.9">
  <!-- Generator: Adobe Illustrator 29.8.2, SVG Export Plug-In . SVG Version: 2.1.1 Build 3)  -->
  <defs>
    <style>
      .st0 {
        fill: #393664;
      }

      .st1 {
        fill: #f95b56;
      }

      .st2 {
        fill: #706f90;
      }

      .st3 {
        fill: #feba99;
      }

      .st4 {
        fill: #fcc227;
      }

      .st5 {
        fill: #3b3866;
      }
    </style>
  </defs>
  <path class="st1" d="M274,157.4c2,28.5,6.7,56.5,14,84-9.8,26.1-8.9,45.6-8,72,1.1,33.2,6.6,50.6,12,82-52.3,13.4-102.5,16.8-154-2,7.8-41.3,17.2-102.9,10-144,23.9-25.8,30.5-59.7,30-94,3,0,15.4-1.4,18-2-.3,20-5.6,39.7-3.7,59.7,23.5,7,47.6,7.5,71.7,4.3,1.1-13.2-2.8-26.1-4-39-.8-8.4,1.3-19.2,0-27,5.5,1.2,8.1,5,14,6Z"/>
  <path class="st0" d="M198,17.4c24.8-16.2,45.4-16.9,69.1,2,2,1.6,2.4,5.7,4.3,6.1,4.4.9,17.5-5.2,23.9-5.9,32.9-3.9,70.7,9.9,74.8,46.8,1.6,13.9-4.4,36.5-1.1,47.1,2.1,6.7,26,26.9,32.7,39.3,21.2,39-1.3,51.8-20.1,81.1-12.3,19.2-3.4,16.3-3.4,32.5,0,13.4-10.6,27.2-22.2,33-10.7-21.1-26.4-60.2-29.2-86-1.5-13.5,5.3-24.4-3.1-38.7-10.5-17.9-33.1-14.5-49.7-17.3s-8.5-4.8-14-6c-.2-1.1-1.4-2.8-2-4-2.2-26.9,42.7-52.9,39.9-76.8-.9-7.3-10.4-19.8-17.9-21.2,0,12-4.6,20.2-12,29s-15,12.5-15.6,13.4c-1.4,2.2,0,5.4-.4,7.5-2.5-1.2-12.2-9.6-10-12,16.3,1.5,23.9-25.5,5-24.2-3.9.3-9.4,5.3-10.9,4.2s-7.6-12.7-7.8-13.5c-.9-4.7,2.2-10,1.8-15.5-.8-14.3-19.6-21.6-32.1-21Z"/>
  <path class="st4" d="M292,395.4c7.5,43.7,11.1,83.8,14,128-23.8,4.3-48,6-72,2-4.3-20.4-8.4-41.1-10-62-5.5.8-17.6-2.1-21,2-3.1,3.8-14.3,46.9-17,56-22.8,6.3-44.5-3.8-66-10,1.5-44.3,10-75.8,18-118,51.5,18.8,101.7,15.4,154,2Z"/>
  <path class="st3" d="M100,61.4c0,2.3-2.9,5.8-1.2,8.1s9.6,5.2,11.2,5.9c-.5,32.7-33.1,12.9-45.8,35.2l-18.2,76.7c2.4,2.1,49.3-12.1,56.4-14.6,14.3-4.9,35.2-17.3,49.1-19,8.4-1,17.1,1.8,26.4,1.5.5,34.3-6.1,68.2-30,94-.6-3.7-4.2-15.4-5.6-19.4s-8.7-18.4-9.8-18.7c-37.3,1.2-75.6,20.4-111.9,23.8s-22.1,3.5-20.5-14.5c4-46,38.8-113.5,53.8-159.2,1.3-3.9,3.3-6.8,2-12,1-.4,1.4-4.1,4.9-4.2,3.7,0,37,8.5,38.1,10.1s1,4,.9,6Z"/>
  <path class="st3" d="M186,521.4c-10.6,36.1-14.6,51.2-16.1,88.9-2.5,62.5-20.5,116-29.9,177.1-.7,4.6-4.4,8.5-4,16-6-.4-17.7,5.3-22.7,3.8s-5.9-17.6-17.3-13.8c.2-.5-.2-1.4,0-2,9.1-25.9,11.2-83.2,14-113,2.5-26.6,7.6-51.4,10-76,2.8-28.3-1-61.8,0-91,21.5,6.2,43.2,16.3,66,10Z"/>
  <path class="st3" d="M306,523.4c.3,4.6,2,12.6,2,15v42c0,7.6,17.9,35.3,19.8,50.2,5.9,47.5,3,101.4,6.1,149.9.3,4,1.2,7.1,2.1,10.9s-.4,3.1,0,4c-8.5-2.6-8.6,9.4-11.3,10.1-6.8,1.7-15.6-3.1-22.7-2.1-.4-5.5-1.4-9.4-2-14-5.5-46.3-15.4-78.5-26.7-122.3-5.3-20.5-6.3-44.9-11.9-64.1-3.3-11.2-12.6-23.5-17-35-5.2-13.8-7.4-28.1-10.5-42.5,24,4,48.2,2.3,72-2Z"/>
  <path class="st3" d="M198,17.4c12.5-.6,31.3,6.8,32.1,21s-2.7,10.8-1.8,15.5,7.1,13,7.8,13.5c1.5,1.1,7.1-3.9,10.9-4.2,18.9-1.3,11.3,25.7-5,24.2-2.2,2.4,7.5,10.8,10,12-4.6,23.7-3.4,27.9,6,48,.6,1.2,1.8,2.9,2,4,1.3,7.7-.8,18.6,0,27,1.2,12.9,5.1,25.8,4,39-24.2,3.3-48.2,2.8-71.7-4.3-1.8-20,3.4-39.7,3.7-59.7,21.5-4.7,20.9-16.1,20-36-1-1.1-23.6,8.4-29.5,1.5-5-5.8-7.2-65.6-5.9-75.9,2.1-16.2,5.2-17.6,17.4-25.6Z"/>
  <path class="st3" d="M274,157.4c16.6,2.8,39.2-.6,49.7,17.3,8.4,14.3,1.6,25.3,3.1,38.7,2.8,25.8,18.5,64.9,29.2,86,17.9,35.2,36.5,103.2,38,143,.5,14.2-2.8,37.6-18,43v-31c0-1.1-3.7-5.7-5-7-4.1-.1-2.6,19.7-11,18v-35c0-4.8,7.8-10.4,5.6-21.5-4.6-23.1-35.3-69.2-45.6-95.5-.7-1.8,0-6.2-1.4-9.6-8.8-22.2-16.1-44.9-26.7-66.4-1.8-.6-3.6,2.9-4,4-7.3-27.5-12-55.5-14-84Z"/>
  <path class="st5" d="M148,31.4c6.7,20.5,4.6,41.9-3,62-3.8,10-10.2,16.9-15,26-21.5-.8-13.1-28.5-13.9-42.9-.7-2.5-4.7-.5-6.1-1.1s-10.8-5.4-11.2-5.9c-1.7-2.3,1.1-5.8,1.2-8.1,24.9,5,17.2,2.2,26.3-14.7s7.6-16.7,21.7-15.3Z"/>
  <path class="st5" d="M36,1.4c10.1,30.3,2.8,68.9-20,92-3-.6-5.8,1.1-9-1.9C-6.8,78.3,7.6,5.9,28,.3c3.1-.9,5.3.5,8.1,1.1ZM18,55.4c8,1.4,10.1-18.3,5-18-5.5,4.6-5.4,11.4-5,18Z"/>
  <path class="st5" d="M320,313.4c-13.1,4-26.8,1.8-40,0-.9-26.4-1.8-45.9,8-72,.4-1.1,2.2-4.6,4-4,10.5,21.5,17.8,44.2,26.7,66.4,1.4,3.4.7,7.8,1.4,9.6Z"/>
  <path class="st2" d="M48,49.4c-.4,2.1-1.6,8.5-2,10-2.7,9.6-13.2,33.5-23.6,35.7-4.4.9-5.2-1.5-6.4-1.7C38.8,70.3,46.1,31.8,36,1.4c19.7,4.5,14.7,32.4,12,48Z"/>
  <path class="st2" d="M148,31.4c19.6,1.9,11.5,44.8,7.4,58.4-3.8,12.6-10.1,30.1-25.4,29.6,4.7-9.1,11.2-16,15-26,7.6-20.1,9.7-41.4,3-62Z"/>
  <path class="st5" d="M56,49.4c1.3,5.2-.7,8.1-2,12l-8-2c.4-1.5,1.6-7.9,2-10,2.2-.4,6.3.6,8,0Z"/>
  <path class="st1" d="M136,803.4c.3,6.5,8.7,23.1.7,28.2-9.4,5.9-81.4,8.6-84.7,3.8,4.9-21.6,35.4-21.6,44-42,11.4-3.8,12.4,12.3,17.3,13.8s16.7-4.2,22.7-3.8Z"/>
  <path class="st1" d="M336,795.4c4.5,11,39.4,23.6,40,40-3.4,5-59.6-2.2-67.5-5.5s-5.9-17.7-6.5-26.5c7.1-1,15.9,3.8,22.7,2.1s2.8-12.7,11.3-10.1Z"/>
  <path class="st2" d="M18,55.4c-.4-6.6-.5-13.4,5-18,5.1-.3,3,19.3-5,18Z"/>
</svg>