<?xml version="1.0" encoding="UTF-8"?>
<svg id="Calque_1" xmlns="http://www.w3.org/2000/svg" version="1.1" viewBox="0 0 444.4 563.7">
  <!-- Generator: Adobe Illustrator 29.8.2, SVG Export Plug-In . SVG Version: 2.1.1 Build 3)  -->
  <defs>
    <style>
      .st0 {
        fill: #e55555;
      }

      .st1 {
        fill: #e9744f;
      }

      .st2 {
        fill: #eda886;
      }

      .st3 {
        fill: #537bad;
      }

      .st4 {
        fill: #324766;
      }

      .st5 {
        fill: #6797ef;
      }
    </style>
  </defs>
  <path class="st4" d="M261,311.3c4.3,18.1,24.5,46.5,31.7,66.7,3.9,10.9,5.9,22.7,9.3,33.9,4.4,14.1,10.9,27.3,15.1,41.5,6.2,21,11.2,44.9,16.2,66.4.4,1.9.9,3.7.6,5.6-.7,0-13.8,2.5-14.4,2.9-1.6-.6-2-2.2-2.7-3.5-9.6-17.7-27.2-47.3-32.3-65.6-1.8-6.7-2.1-15.3-4.8-21.2s-11.2-13.9-15.3-20.2c-11.5-17.5-20.8-42-33.4-57.8-5.8-7.2-10.6-9.2-17.5-1.5-11.2,12.2-23.5,42.3-33.4,57.8s-16,18.7-17.8,25.4-.8,8.6-1.8,12.6c-6.5,25.7-24.9,49.9-35.8,74.1-4.7.6-10.9-2.9-15.4-1.9,6.8-29.5,12.8-59.1,22.1-87.9s13.3-50.8,24.2-73.8c8.5-18.1,19.1-35.3,27.7-53.4,6,2.3,11.9,4.2,18.2,5.3,13,2.3,23.7,2.3,36.7.2s15.2-3.6,22.8-5.5Z"/>
  <path class="st0" d="M197.7,175c-.6,50.6,47.9,50.6,48,0,8.6,1,18.1-3.6,25.9,1-.5.4-3.8,11.1-3.8,12v23c0,2.2,1.9,7.2,1.9,10.1,0,11.7-13.1,28.9-13.4,41.8s2.5,39,4.8,48.4c-7.6,1.9-15.1,4.2-22.8,5.5-13,2.1-23.7,2.1-36.7-.2-6.3-1.1-12.2-3-18.2-5.3-1.5-16.1,4.9-38.9,2.8-54.2-1.5-10.5-11.8-23.7-12.4-35.1s5.2-42-2.9-46.1c8.4-4.5,18,0,26.9-1Z"/>
  <path class="st3" d="M388.7,56c0-18.5,0-37.1,0-55.7h18.2v12.5h19.2v12.5h16.8c.1,0,1.4,1.3,1.4,1.4v69.6h-18.2c-.3,2.1,1,13.4-1.4,13.4h-16.8v11.5h-19.2c0-18.9,0-37.8,0-56.6,0-2.9,0-5.8,0-8.6Z"/>
  <path class="st3" d="M54.7.3l1,1c0,18.2,0,36.5,0,54.7,0,2.9,0,5.8,0,8.6,0,18.5,0,37.1,0,55.7l-1,1c-5.1,1-12.8-.7-18.2,0v-11.5s-16.8,0-16.8,0c-2.4,0-1.2-11.4-1.4-13.4H0V26.7c0-.1,1.3-1.4,1.4-1.4h16.8v-12.5h19.2V.3c5.2.7,12.4-.9,17.3,0Z"/>
  <path class="st2" d="M102.7,56c1.3-8.6,19.7-5.1,25.4-3.8s1.1,1.7,1.4,3.8c-4.4-1-4.8,6.8-3.8,7.7s3.8-.5,4.8,1c.1,5.8-5.7,13.5-6.3,18.2s14.9,36.8,17.6,44.9c1.8,5.3,1.8,11.6,3.9,16.3s10.6,14.1,14.4,19.2,4.6,9.7,10.7,12.8,2.5,38.3,2.9,46.1l-15.9-11.5c-18-20.1-30.2-45.8-39.3-71.1-7.7-21.3-5.3-37-9.4-56.9s-4.4-11.1-5.5-18-1.3-6.6-1-8.6Z"/>
  <path class="st2" d="M338.8,56c.4,3.4-.5,5.6-1,8.6-1.2,8.4-4.8,14.4-5.6,21.7-.5,4.7.3,9.6-.1,14.3-3.3,34.4-22.8,82.1-45.6,108s-10.5,9.9-16.8,12.5c0-2.9-1.9-7.9-1.9-10.1v-23c0-.9,3.3-11.6,3.8-12s2,.3,3.3-.9,20.8-28.6,21.5-30.4c2.1-5,2.3-11.5,4.2-17,4.2-12.3,13.6-27.6,16.6-40,1.9-8.1-5.6-14.7-5.3-23.1,1-1.5,4.5-.7,4.8-1,1.4-1.3-.5-7.6-3.8-7.7l.5-4.8c5.4,1.6,10.4-1.6,16.4-1s7.1,1.8,8.1,2.5.8,2.1,1,3.4Z"/>
  <path class="st5" d="M312.9,56c3.4,0,5.3,6.4,3.8,7.7s-3.8-.5-4.8,1h-181.4c-1-1.5-4.5-.7-4.8-1-1-.9-.6-8.6,3.8-7.7h183.3Z"/>
  <path class="st3" d="M334,525.4c1.8.2,8.6,9.8,11.6,11.9,5.3,3.7,22,9.6,25,14.4,5.2,8.7-5.1,12.2-11.9,12-12.2-.4-18.8-6.3-28.4-12-5.7-3.3-11.5-2.4-12.5-11.5-.2-2,.7-11.2,1.9-12s13.7-3,14.4-2.9Z"/>
  <path class="st3" d="M124.8,528.3c1.8,6,4,14.2-1.4,19.2s-6.4,2.6-9.2,4.3c-4.9,2.9-8.8,6.6-14.4,8.7-6.1,2.3-22.9,6.2-26.4-1.4-4.8-10.6,19-17.1,25.4-21.6s8.3-10.5,10.6-11c4.4-1,10.7,2.5,15.4,1.9Z"/>
  <path class="st5" d="M388.7,56c0,2.9,0,5.8,0,8.6h-50.9c.4-3,1.3-5.2,1-8.6h49.9Z"/>
  <path class="st5" d="M102.7,56c-.3,2.1.6,6.3,1,8.6h-48c0-2.9,0-5.8,0-8.6h47Z"/>
  <path class="st5" d="M54.7,121.3l1-1c0,.7-.3.8-1,1Z"/>
  <path class="st2" d="M198.7,125.1c.4,2.1,1.8,10.5,4.3,10.6s1.5-15.5.5-17.3c11.9,2.3,23.6-.8,35.5-1-1.3,5.5.5,10.7,0,16.3,4.6-2.1,3.2-6.1,3.8-9.6,2.8-.6,2.1,1.6,2,3.4-.3,4.8-3.5,16-5.1,20.9s-5.6,9.7-5.6,14.7c.2,8.5,3.4,11.1,11.6,12,0,50.6-48.5,50.6-48,0,2.9-.3,10.2-2,11.1-4.8,2.9-8.6-2.7-15.1-5.4-22.6s-4.5-11.5-5.3-15.8c-.4-2-1.4-5.2.5-6.8ZM231.3,160.6c-.4-.4-7.7,3.7-10.1,3.8-3.9.2-7.4-2.5-10.9-3.3,3.5,9.9,17.6,9.1,21.1-.5Z"/>
  <path class="st1" d="M242.8,124.1c-.6,3.5.8,7.5-3.8,9.6.5-5.6-1.3-10.8,0-16.3-11.9.2-23.7,3.2-35.5,1,1,1.8.4,17.3-.5,17.3-2.5,0-4-8.5-4.3-10.6-2.8-16.5.3-27.2,18.7-28.8s17.2-.5,23.1,5.8,3.8,13.9,2.4,22.1Z"/>
  <path class="st1" d="M231.3,160.6c-3.5,9.5-17.6,10.3-21.1.5,3.6.8,7.1,3.5,10.9,3.3s9.7-4.1,10.1-3.8Z"/>
</svg>