<?xml version="1.0" encoding="UTF-8"?>
<svg id="Calque_1" xmlns="http://www.w3.org/2000/svg" version="1.1" viewBox="0 0 1121.3 577">
  <!-- Generator: Adobe Illustrator 29.8.2, SVG Export Plug-In . SVG Version: 2.1.1 Build 3)  -->
  <defs>
    <style>
      .st0 {
        fill: #ffab89;
      }

      .st1 {
        fill: #f95b56;
      }

      .st2 {
        fill: #706f90;
      }

      .st3 {
        fill: #feba99;
      }

      .st4 {
        fill: #5abaf7;
      }

      .st5 {
        fill: #3b3866;
      }
    </style>
  </defs>
  <path class="st1" d="M745.6,220.5c-13.2,9.9-32,10.5-48,10-4.7-18.7-13.2-36.9-16-56-13.9,3.8-20.3,18.7-30,28-60.3,57.8-130.9,48-190-4s-20.1-22.9-24-20c-3.3,17.5-11.7,35-16,52-18.1,2.4-33-4-50-8,6.2-26.8,12.4-67.3,21.3-91.7s79.3-58.4,108.7-62.3c0,13.8,7.7,13,10.7,22.3,4.3,13.8,1.7,16.7,10.5,31.5,18.8,31.9,34.4,51,58.4,10.8,12-20.1,7.8-25.3,12.8-43.2,2.7-9.5,11.9-7.5,9.6-27.4,34.2,4.3,104,33.8,120.4,64.6,8.9,16.7,16.1,60.1,21.1,80.9,1,4.3-.2,9.2.5,12.5Z"/>
  <path class="st3" d="M421.6,230.5c-1.5,5.8-2.9,12.1-4,18-3.1,16.6-9.2,48.5-10,64l-30.1,93.1c.3,11.4,24.7,16.4,22.1,30.9-5.5.2-17.9-1.3-21.1,4-5.5,9.1,4.5,11.5,11.1,12-.5,3-4,11.1-5.8,12.7-5.2,4.6-33.9-5.5-42.9-2.6-1.2-.3-4.8-8.3-5.3-10.1-.9-3-2.2-12.8-2-16,.4-8.8,6.2-23,7.7-33.3,9.4-64.5,15.4-116.3,30.3-180.7,17,4,31.9,10.4,50,8Z"/>
  <path class="st3" d="M785.6,436.5c.4,5.8-.4,10.5-2,16-1,3.3-1.4,8.5-5.3,9.7s-32.4,4.5-35.8,4.4c-7.6-.1-10.9-7.3-10.9-14.1,7.7-.3,15.7,2.3,14-8.9-1.6-10.4-17.7-6.9-26-7.1-1-16.2,22.5-18,22.1-32.9-7.7-39.1-28.2-78.2-35.2-117-3.4-19.2-3.8-36-8.9-56.1,16,.5,34.8-.1,48-10,15.5,65.8,23.6,111.1,32.2,178.8,1.5,11.9,7.1,25.8,7.8,37.2Z"/>
  <path class="st5" d="M913.6,294.5c4.4,13.4,7.8,27.2,9.7,41.3,7.9,58.6,8.6,155.4-2.3,213.2-1.6,8.7-4.7,17.2-7.5,25.5-1.7-.2-6.9-.4-8,0-6.6-15.3-8-31.7-10-48-3-24.5-4.6-49.3-4-74h-108c1.6-5.5,2.4-10.1,2-16h106c-.2-33.6-.3-67.4,4.3-100.7,1.8-13.3,3-39.5,17.7-41.3Z"/>
  <path class="st5" d="M221.6,294.5c2.5.3,8.8,1.5,10.2,3.3,13.7,44.6,12.9,92.3,13.8,138.7h88c-.2,3.2,1.1,13,2,16h-90c-1.8,23.3-1.6,46.8-4,70s-5.6,46.6-12.1,51c-2.1,1.4-4.4.5-5.9,1-5.4-10.2-7.9-21.9-9.7-33.3-8-48.7-6.7-100.8-4.3-149.8,1.6-32.7,2.2-65.3,12-97Z"/>
  <path class="st3" d="M511.6,50.5c-.1,3-.6,24.1,1,24,7.1-.1,6-19.1,7-24,16.9,6.9,31.6,13.4,50,7,5.4-1.9,8.6-6.3,14-7,1.7,1.9-3.9,31.7,9,30,1.6-.2,1.3-26.5,1-30,7.6-1.4,9.3,5.9,10,12,2.3,19.9-6.9,18-9.6,27.4-5,17.9-.8,23.1-12.8,43.2-24.1,40.2-39.6,21.1-58.4-10.8-8.7-14.8-6.1-17.7-10.5-31.5s-10.7-8.5-10.7-22.3c0-6.2,1.7-20.7,10-18Z"/>
  <path class="st5" d="M193.6,330.5c-8.3,59.5-8.2,148.6,0,208-7.8,2.2-12.2-5.6-14-12-3.6-12.7-4.8-40.5-6-55-.5-6.3.3-12.7,0-19H4.6c-6.1,0-6.1-16,0-16h169c0-26.5.3-54.3,4.6-80.4,1.6-10.1,2.2-27.2,15.4-25.6Z"/>
  <path class="st2" d="M941.6,330.5c9.5,63.3,9.1,144.6,0,208-1.8,12.3-2.8,24.5-8,36-9.6.6-10.1,1-20,0,2.8-8.4,5.8-16.8,7.5-25.5,10.9-57.8,10.2-154.6,2.3-213.2-1.9-14.1-5.3-27.8-9.7-41.3,27.9-3.4,24.7,14.1,28,36Z"/>
  <path class="st2" d="M221.6,294.5c-9.9,31.6-10.4,64.3-12,97-2.4,48.9-3.7,101,4.3,149.8,1.9,11.4,4.3,23.1,9.7,33.3-6,1.8-14.5,4.9-20.1-.9-5-5.1-8.8-27.3-9.9-35.1-8.2-59.4-8.3-148.5,0-208,.9-6.6,5.1-30.1,8.9-34.1s14.4-2.4,19.1-1.9Z"/>
  <path class="st5" d="M941.6,330.5c12-1.8,13,9,15.1,17.9,6.6,28.5,3.9,59,6.9,88.1h151c6.1,0,11.4,13.7,0,15.9l-151.1.9c-3.8,2.6-1.3,24-1.8,30.2-1.1,13.4-3.1,37-8.1,48.9-3.1,7.5-2.9,6.5-12,6,9.1-63.4,9.5-144.7,0-208Z"/>
  <path class="st5" d="M593.6,50.5c.3,3.5.6,29.8-1,30-12.9,1.7-7.3-28.1-9-30-5.4.7-8.6,5.1-14,7-18.4,6.4-33.1,0-50-7-.9,4.9,0,23.9-7,24-1.7,0-1.2-21-1-24,.9-20.7,5-42.6,28.4-48.6,36-9.3,51.2,17.1,53.6,48.6Z"/>
  <path class="st5" d="M451.6,512.5c0,1.3.1,2.7,0,4s-1.6,1.5-1.9,3.2c-1.2,8.5,2.8,13.9-6.3,19.7s-56.2,17.5-70.4,14.6c-3.2-.6-5.5-.5-5.6-4.4-.1-8.3,16.1-24.4,22.1-31,3.1-3.4,24.2-25.6,26-26,21.2-5.3,18.3,23,36,20Z"/>
  <path class="st5" d="M695.6,494.5c2,3.4,19.7,19.2,24,24s21.3,21.3,23.2,28c3.9,13.9-30.2,6.4-37.2,5.1-8.9-1.7-32.7-7.8-39.5-12.5-8-5.6-5.7-12.5-6.5-20.5s.3-6.7,0-10c3.7,0,16,7.4,17.9,6s6.6-22,18.1-20Z"/>
  <path class="st4" d="M651.6,202.5c14.4,13.3,31,31.2,40.9,48.2s.6,4.8,1.1,5.8c-36.3-8.4-69.2.4-82,38-11.1-11.2-41.3-32-57-32s-25.3,8.9-30.4,11.7c-4.4,2.5-17.3,11.3-20.6,14.4-11.2-31.2-35.9-59.8-72-56,9.2-11.8,18.5-24.1,30-34,59.1,52,129.7,61.8,190,4Z"/>
  <path class="st0" d="M503.6,288.5c-.4.3-.4,3.5-1.9,5-7.4,7.2-31.7,31.8-33.6,40.4-1.8,8-.9,28.4-.4,37.6.4,7.5,4.1,16.6,4.1,24,0,13-7.9,27.7-8.2,41-19.9,0-40.1-.5-60,0-12.5-27.2,3.5-51.9,6-77s-2.7-32.1-2-47c.8-15.5,6.9-47.4,10-64,5.4-4.1,9.8-10.6,14-16,36.1-3.8,60.8,24.8,72,56Z"/>
  <path class="st5" d="M399.6,436.5c1.3,0,2.7,0,4,0,19.9-.5,40.1,0,60,0,61.3-.3,122.7-.2,184,0,20,0,40-.2,60,0,4,0,8-.1,12,0,8.4.2,24.5-3.3,26,7.1,1.7,11.2-6.3,8.6-14,8.9-10.6.5-21.4-.1-32,0-15.3.2-30.7,0-46,0-65.3.2-130.7.3-196,0-16,0-32,.2-48,0-6.5,0-13.7.5-20,0s-16.6-2.9-11.1-12,15.5-3.7,21.1-4Z"/>
  <path class="st0" d="M699.6,452.5c-2,13.8-12,28.1-4,42-11.5-2-16.5,18.8-18.1,20s-14.2-6-17.9-6c-1.5-18.8-2.9-37.4-6-56,15.3,0,30.7.2,46,0Z"/>
  <path class="st0" d="M457.6,452.5c-7.5,20.4-4.6,39.4-6,60-17.7,3-14.8-25.3-36-20,4.7-15.1-2.2-25.8-6-40,16,.2,32,0,48,0Z"/>
  <path class="st0" d="M693.6,256.5c2.9,5.9,6.8,6.4,8,17,2.9,26.6-4.4,59.7-2,84,1.6,15.9,11.7,35,12.1,52,.3,9.9-3.8,17.5-4.1,27-20-.2-40,0-60,0-2.9-10.2-7.1-22.5-8-33-1.7-22.5,8.6-48.2,1.8-69.8-2.1-6.6-24-33.3-29.8-39.2,12.8-37.6,45.7-46.4,82-38Z"/>
</svg>