<?xml version="1.0" encoding="UTF-8"?>
<svg id="Calque_1" xmlns="http://www.w3.org/2000/svg" version="1.1" viewBox="0 0 878.7 706.1">
  <!-- Generator: Adobe Illustrator 29.8.2, SVG Export Plug-In . SVG Version: 2.1.1 Build 3)  -->
  <defs>
    <style>
      .st0 {
        fill: #373439;
      }

      .st1 {
        fill: #383564;
      }

      .st2 {
        fill: #393664;
      }

      .st3 {
        fill: #ffab89;
      }

      .st4 {
        fill: #f95b56;
      }

      .st5 {
        fill: #706f90;
      }

      .st6 {
        fill: #feba99;
      }

      .st7 {
        fill: #fcc227;
      }

      .st8 {
        fill: #3b3866;
      }
    </style>
  </defs>
  <path class="st4" d="M842.6,598.5c-12.5,6.3-23.7,12.4-38,14-.2-.3-3.3-.2-4.8-2.1-33-40.4-61.8-74.7-97.2-112.9-23.8-25.7-38.8-68.8-52-101l-6,1-103.6,86.2c15.5,35.3,20,73.9,29.6,110.8-13.9,3-27.4,7.6-42,6-12-34.2-29.2-69.6-40-105s-5.7-13.8-3.5-21.6c22.3-48.9,69.4-81.1,105.6-119.5,43.4,16.2,86.8-17.9,90-62,12.6,12.9,18.8,16.1,27,34,24.8,54.5,28.8,129.3,69.1,176.9,8.9,10.6,22.3,19,32,30,20.4,23,22.7,38.6,33.9,65.1Z"/>
  <path class="st5" d="M218.6,184.5l-27.7,31.3c-70.9,94.8-121.4,338.7-79.9,449.2,2.8,7.4,7.9,13.7,9.5,21.5-12.8-3.2-25.4-6.6-38-10-9.2-11.2-16-22.6-20.6-36.4-35.1-107.2,12.8-356.4,88.5-442.6l26.1-24.9c14.1,3.5,28,8.6,42,12Z"/>
  <path class="st6" d="M430.6,52.5c31.1-18.2,23,23.3,37.4,27.6s27.5-13.8,26.8,9.5c-.1,4.7-5.9,1-4.2,6.9,5.9-1.1,11.4,1.6,17,2,2.9.2,7.5-2.5,9-2s6.8,8.4,12.2,10.8c16,7.2,40.3,6.7,53.8,19.2-4.6-.4-9.9-.2-14.5.5s-10.9,2.5-11.5,5.5c16.8,1,30.4-7.2,44,7,8.7,9.2,18.8,43.5,10.1,54-6.8,8.3-51.1,17.7-61.6,13.4-8.7-3.6-5.8-14.1-16.1-9s-3.6,4-4.4,4.5c-3.5,2-6.6,3.8-10,6-26.9,17.4-53.7,37-87,40-31.1,2.7-65.5,2-97,2-6.6,0-13.6,1.9-18,2-25.9.3-25.2-36.1-40.5-46.5-1.6-1.1-4.2-.8-5.5-1.5-3.5-1.9-4.8-3.8-4-8,14.7,3.4,15.4-.8,32,8,4.9,7.1,11.5,12.5,18,18s4.1,8.4,15,8.1c35.9-1,75.4-13.6,111.4-16.7,29.7-19.1,56.3-42.1,83.5-64.4,0-2.3-19.6-13-22.6-12.6-7.2,1-22.5,23.8-31.9,21.3-7.9-2.1-18.9-25.6-21.8-27.3s-14.6.7-15.6-.4.4-16.7-.2-20.8c-3.6-26.1-15-24.8-3.8-57.2Z"/>
  <path class="st5" d="M162.6,170.5c-7.2,6.6-15.7,13.6-22.1,20.9C63,282,12.7,536.7,52.6,647.6c3.1,8.6,9.3,15.7,10,25-6.9-1.9-17.8-2.8-24-6-10.4-5.3-19.9-24.2-24-35-40.6-104.5,9.4-341.3,77.2-430.9s31.5-36.2,51.8-36.3c9.2,0,14.2,5.1,19,6.2Z"/>
  <path class="st5" d="M266.6,196.5c-.8,4.2.5,6.1,4,8-41.2,25.2-65.3,77-82,121-32.4,85-71.5,277.9-24.3,358.4l14.4,18.6c-12-2.7-24-7.1-36-10-18.4-17.6-25.1-41.1-29.4-65.6-19.3-110.4,19.7-315.6,88.5-406.2,10.5-13.8,20.7-22.3,34.8-32.2,9.9,2.5,20.5,5.8,30,8Z"/>
  <path class="st7" d="M582.6,126.5c30.5,2.5,42.5,43.7,45.8,69.2,1.7,13.4.4,44.6,5.3,54.7s25,19.7,30.9,25.1c5.8,5.3,10.6,11.5,16,17-3.2,44.1-46.6,78.2-90,62-9.9-30.2-16.8-65.3-28.4-94.6s-7.6-11.3-17.6-19.4-17.3-19.5-16-38c.8-.5,1.9-3.2,4.4-4.5,10.3-5.2,7.3,5.4,16.1,9,10.5,4.3,54.7-5.1,61.6-13.4,8.7-10.6-1.4-44.9-10.1-54-13.5-14.3-27.2-6-44-7,.6-3,9.1-5.1,11.5-5.5,4.6-.7,9.9-.9,14.5-.5Z"/>
  <path class="st2" d="M430.6,52.5c.7-2,0-4.6,1.5-7.4,7.6-14.6,23.4-22.1,39.5-22.8,4.4-.2,11.6,2.7,13.7,2s7-19.3,23.1-23c47.3-11,63.3,46.5,21.7,61.8-2.7,1-9.2,1.1-9.5,1.4-1.1,1.2-1,27-4.1,31.9-1.5-.5-6.1,2.2-9,2-5.7-.5-11.1-3.1-17-2-1.7-6,4.1-2.2,4.2-6.9.7-23.3-16.7-6.4-26.8-9.5-14.4-4.3-6.3-45.8-37.4-27.6Z"/>
  <path class="st8" d="M236.6,188.5c-14.2,9.8-24.3,18.4-34.8,32.2-68.8,90.6-107.9,295.8-88.5,406.2,4.3,24.6,11,48,29.4,65.6-7.5-1.8-14.7-4.2-22-6-1.7-7.8-6.8-14.1-9.5-21.5-41.5-110.5,9-354.3,79.9-449.2l27.7-31.3c5.9,1.5,12,2.5,18,4Z"/>
  <path class="st8" d="M176.6,172.5l-26.1,24.9c-75.8,86.2-123.7,335.4-88.5,442.6,4.5,13.8,11.4,25.2,20.6,36.4-5.6-1.5-13.2-2.1-20-4-.8-9.2-7-16.4-10-25-39.9-110.8,10.4-365.6,88-456.1,6.3-7.4,14.9-14.3,22.1-20.9,4,.9,8.9.8,14,2Z"/>
  <path class="st8" d="M820.6,660.5c13.7-10.1,19.1,5.6,26.9,5.7s16.6-2.3,19.1-7.7c.3.4,5.4,1.5,8,6s6.2,15.6,2.8,18.2c-6.3,4.8-35.4,13.2-44.3,15.2-16.6,3.6-35.9,6.9-52.4,2.6-4-6,19.4-21.1,24.2-24.8,7.4-5.6,14.7-6,15.8-15.2Z"/>
  <path class="st6" d="M842.6,598.5c3.9,9.1,21.9,57,24,60-2.5,5.4-13.9,7.7-19.1,7.7-7.8,0-13.1-15.8-26.9-5.7.2-1.8,0-4.1,0-6-.5-15.2-6.3-30.2-16-42,14.3-1.6,25.5-7.7,38-14Z"/>
  <path class="st5" d="M316.6,222.5c-6.5-5.5-13.1-10.9-18-18,9,4.8,15.4,6,18,18Z"/>
  <path class="st1" d="M316.6,252.5c8.2,13.4,16.8,21.8,20,38s1.8,10.6,2.1,14.9c6.6,100.2-22,249.4-72.1,337.1-10.8,18.9-33.6,50.6-53.5,59.5s-19.6,3.9-34.5.5l-14.4-18.6c-47.2-80.5-8-273.5,24.3-358.4,16.7-43.9,40.8-95.8,82-121,1.2.7,3.8.4,5.5,1.5,15.4,10.4,14.6,46.9,40.5,46.5ZM282.1,308.8c-10.6,1.5-23.7,34.8-27.5,44.7-19.5,50.8-51.6,191-36.6,240.7,6.1,20.1,16.2,7.6,23.5-3.8,32.6-50.9,58.4-199,53.2-258.9-.6-7.1-3-24.1-12.6-22.7Z"/>
  <path class="st8" d="M590.6,648.5c1.2,2.9,6.4,5,6.1,13.1-.4,14.4-31,13-42.5,15.5-20.7,4.5-33.9,11.4-56.6,9.4-5.5-.5-14.3-1.3-10.6-7.6,13.6-3.7,43.2-32.1,53.6-34.3,10.6-2.2,17.4,7.4,27,8.1,8.5.6,14.7-4.6,23-4.1Z"/>
  <path class="st6" d="M570.6,594.5c4.9,19,10.2,28.9,18,46s1.2,6.1,2,8c-8.3-.5-14.5,4.7-23,4.1-9.6-.7-16.5-10.4-27-8.1,1-2.5-1.8-4.9-2-6-2.4-10.8-6.5-27.9-10-38,14.6,1.6,28.1-3,42-6Z"/>
  <path class="st3" d="M528.6,202.5c-1.3,18.5,2.2,26.7,16,38-6.8,3.1-14.4,10-20,15s-24.1,25.2-30.9,29.1c-12.9,7.5-85.5,13.2-104,14-10.1.4-33.4,1.6-42-.1-5.1-1-6.7-5.9-11-8-3.2-16.2-11.8-24.6-20-38,4.4,0,11.4-2,18-2,2.8,6.2,17.2,25.3,23.1,26.1,41-7.9,83.1-13.5,123.1-24.9l37.8-43.2c3.4-2.2,6.5-4,10-6Z"/>
  <path class="st0" d="M282.1,308.8c9.6-1.4,12,15.5,12.6,22.7,5.1,59.9-20.6,208-53.2,258.9-7.3,11.4-17.4,23.9-23.5,3.8-15-49.7,17-189.9,36.6-240.7s16.9-43.2,27.5-44.7Z"/>
</svg>